<svg width="76" height="82" viewBox="0 0 76 82" fill="none" xmlns="http://www.w3.org/2000/svg">
<g filter="url(#filter0_d_254_485)">
<path d="M35.5906 2.99744C37.0511 1.82961 39.1261 1.82971 40.5867 2.99744L50.2537 10.7269C50.5685 10.9787 50.9202 11.1817 51.2957 11.3285L62.823 15.8353C64.5647 16.5163 65.6022 18.3136 65.321 20.1625L63.4607 32.3988C63.4001 32.7973 63.4001 33.2025 63.4607 33.601L65.321 45.8383C65.602 47.687 64.5646 49.4835 62.823 50.1644L51.2957 54.6713C50.9202 54.8181 50.5685 55.0211 50.2537 55.2728L40.5867 63.0023C39.1261 64.1701 37.0511 64.1702 35.5906 63.0023L25.9236 55.2728C25.6088 55.0212 25.2579 54.818 24.8826 54.6713L13.3552 50.1644C11.6136 49.4835 10.5762 47.687 10.8572 45.8383L12.7175 33.601C12.7781 33.2025 12.7781 32.7972 12.7175 32.3988L10.8572 20.1625C10.5761 18.3136 11.6135 16.5163 13.3552 15.8353L24.8826 11.3285C25.2579 11.1817 25.6088 10.9786 25.9236 10.7269L35.5906 2.99744ZM38.0154 12.0004C26.3954 12.0495 17.0406 21.467 17.0896 33.1224C17.0896 33.983 17.163 34.8439 17.2615 35.7045C17.4092 36.8848 17.6551 38.0413 17.9998 39.1478C18.7137 41.5083 19.8469 43.7209 21.324 45.6635C22.1117 46.6961 22.9977 47.6552 23.9578 48.5404C27.6998 51.9584 32.6975 54.0239 38.1628 53.9994C43.6282 53.9748 48.6016 51.8853 52.3191 48.4427C53.3038 47.533 54.1895 46.5489 54.9773 45.4916C55.9128 44.2375 56.7015 42.8848 57.3416 41.434C57.6369 40.7702 57.8827 40.0813 58.1042 39.3929C58.2273 38.9996 58.3261 38.631 58.4246 38.2377C58.6461 37.3525 58.8427 36.4181 58.9412 35.4838C59.0396 34.6477 59.0886 33.7868 59.0886 32.9261C59.0394 21.3197 49.6109 11.9758 38.0154 12.0004Z" fill="url(#paint0_linear_254_485)"/>
<g filter="url(#filter1_d_254_485)">
<path fill-rule="evenodd" clip-rule="evenodd" d="M63.0001 33C63.0001 46.8071 51.8072 58 38 58C24.1929 58 13 46.8071 13 33C13 19.1929 24.1929 8 38 8C51.8072 8 63.0001 19.1929 63.0001 33ZM58.8524 35.4835C58.9508 34.6474 59.0001 33.7868 59.0001 32.9261C58.9508 21.3197 49.5218 11.9755 37.9263 12C26.3061 12.0492 16.951 21.4672 17.0002 33.1229C17.0002 33.9835 17.074 34.8442 17.1725 35.7048C17.3202 36.8851 17.5664 38.0409 17.9111 39.1474C18.625 41.5081 19.7575 43.7212 21.2346 45.6638C22.0225 46.6966 22.9087 47.6556 23.8689 48.5408C27.6109 51.9588 32.6086 54.0244 38.074 53.9998C43.5394 53.9752 48.5124 51.885 52.2299 48.4424C53.2146 47.5326 54.1009 46.549 54.8887 45.4916C55.8242 44.2375 56.612 42.8851 57.2521 41.4343C57.5476 40.7704 57.7937 40.0818 58.0153 39.3933C58.1384 38.9999 58.2369 38.631 58.3354 38.2376C58.5569 37.3523 58.7539 36.4179 58.8524 35.4835Z" fill="url(#paint1_linear_254_485)"/>
<path fill-rule="evenodd" clip-rule="evenodd" d="M60.0001 33C60.0001 45.1503 50.1503 55 38 55C25.8498 55 16 45.1503 16 33C16 20.8497 25.8498 11 38 11C50.1503 11 60.0001 20.8497 60.0001 33ZM58.8524 35.4835C58.9508 34.6474 59.0001 33.7868 59.0001 32.9261C58.9508 21.3197 49.5218 11.9755 37.9263 12C26.3061 12.0492 16.951 21.4672 17.0002 33.1229C17.0002 33.9835 17.0741 34.8442 17.1725 35.7048C17.3202 36.8851 17.5664 38.0409 17.9111 39.1474C18.625 41.5081 19.7575 43.7212 21.2346 45.6638C22.0225 46.6966 22.9087 47.6556 23.8689 48.5408C27.6109 51.9588 32.6086 54.0244 38.074 53.9998C43.5394 53.9752 48.5124 51.885 52.2299 48.4424C53.2146 47.5326 54.1009 46.549 54.8887 45.4916C55.8242 44.2375 56.612 42.8851 57.2521 41.4343C57.5476 40.7704 57.7937 40.0818 58.0153 39.3933C58.1384 38.9999 58.2369 38.631 58.3354 38.2376C58.5569 37.3523 58.7539 36.4179 58.8524 35.4835Z" fill="url(#paint2_radial_254_485)" fill-opacity="0.1"/>
</g>
</g>
<defs>
<filter id="filter0_d_254_485" x="-4" y="-1" width="84" height="84" filterUnits="userSpaceOnUse" color-interpolation-filters="sRGB">
<feFlood flood-opacity="0" result="BackgroundImageFix"/>
<feColorMatrix in="SourceAlpha" type="matrix" values="0 0 0 0 0 0 0 0 0 0 0 0 0 0 0 0 0 0 127 0" result="hardAlpha"/>
<feOffset dy="8"/>
<feGaussianBlur stdDeviation="5"/>
<feColorMatrix type="matrix" values="0 0 0 0 0.00392157 0 0 0 0 0.0196078 0 0 0 0 0.2 0 0 0 0.08 0"/>
<feBlend mode="normal" in2="BackgroundImageFix" result="effect1_dropShadow_254_485"/>
<feBlend mode="normal" in="SourceGraphic" in2="effect1_dropShadow_254_485" result="shape"/>
</filter>
<filter id="filter1_d_254_485" x="7" y="5" width="62" height="62" filterUnits="userSpaceOnUse" color-interpolation-filters="sRGB">
<feFlood flood-opacity="0" result="BackgroundImageFix"/>
<feColorMatrix in="SourceAlpha" type="matrix" values="0 0 0 0 0 0 0 0 0 0 0 0 0 0 0 0 0 0 127 0" result="hardAlpha"/>
<feOffset dy="3"/>
<feGaussianBlur stdDeviation="3"/>
<feColorMatrix type="matrix" values="0 0 0 0 0.00392157 0 0 0 0 0.0196078 0 0 0 0 0.2 0 0 0 0.08 0"/>
<feBlend mode="normal" in2="BackgroundImageFix" result="effect1_dropShadow_254_485"/>
<feBlend mode="normal" in="SourceGraphic" in2="effect1_dropShadow_254_485" result="shape"/>
</filter>
<linearGradient id="paint0_linear_254_485" x1="10.7817" y1="32.9896" x2="65.3783" y2="32.9896" gradientUnits="userSpaceOnUse">
<stop stop-color="#41B8FD"/>
<stop offset="0.3123" stop-color="#0013BD"/>
<stop offset="0.7592" stop-color="#5866E0"/>
<stop offset="1" stop-color="#6CC7FD"/>
</linearGradient>
<linearGradient id="paint1_linear_254_485" x1="12.9729" y1="32.9918" x2="63.0108" y2="32.9918" gradientUnits="userSpaceOnUse">
<stop stop-color="#41B8FD"/>
<stop offset="0.3123" stop-color="#0013BD"/>
<stop offset="0.7592" stop-color="#5866E0"/>
<stop offset="1" stop-color="#6CC7FD"/>
</linearGradient>
<radialGradient id="paint2_radial_254_485" cx="0" cy="0" r="1" gradientUnits="userSpaceOnUse" gradientTransform="translate(37.989 32.9889) scale(21.9893 21.9893)">
<stop stop-color="white" stop-opacity="0"/>
<stop offset="1" stop-color="#571600"/>
</radialGradient>
</defs>
</svg>
