<svg width="83" height="84" viewBox="0 0 83 84" fill="none" xmlns="http://www.w3.org/2000/svg">
<g filter="url(#filter0_d_254_564)">
<path fill-rule="evenodd" clip-rule="evenodd" d="M42.6531 3.36363C41.9375 2.81906 40.9464 2.81906 40.2308 3.36362L36.3385 6.32559C35.8628 6.6876 35.2501 6.81783 34.6683 6.68061L29.9077 5.55787C29.0325 5.35145 28.1271 5.75456 27.6948 6.54311L25.3438 10.8321C25.0564 11.3563 24.5496 11.7245 23.9623 11.8358L19.1567 12.7464C18.2731 12.9139 17.61 13.6504 17.5358 14.5466L17.1325 19.4211C17.0832 20.0168 16.7701 20.5593 16.2788 20.8998L12.259 23.6864C11.5199 24.1987 11.2137 25.1412 11.5104 25.9901L13.1246 30.6072C13.3219 31.1715 13.2565 31.7945 12.9462 32.3054L10.4073 36.486C9.94049 37.2546 10.0441 38.2403 10.6605 38.8951L14.0131 42.4564C14.4228 42.8917 14.6164 43.4874 14.5407 44.0804L13.9218 48.9323C13.808 49.8243 14.3035 50.6826 15.1329 51.03L19.6442 52.9199C20.1956 53.1509 20.6147 53.6164 20.7868 54.1889L22.1947 58.873C22.4536 59.7342 23.2554 60.3167 24.1544 60.2968L29.0444 60.1883C29.642 60.1751 30.2142 60.4299 30.6043 60.8829L33.7957 64.5894C34.3825 65.2708 35.3519 65.4769 36.1651 65.093L40.5882 63.005C41.1288 62.7498 41.7552 62.7498 42.2957 63.005L46.7188 65.093C47.532 65.4769 48.5014 65.2708 49.0882 64.5894L52.2796 60.8829C52.6697 60.4299 53.2419 60.1751 53.8396 60.1883L58.7295 60.2968C59.6285 60.3167 60.4303 59.7342 60.6892 58.873L62.0971 54.1889C62.2692 53.6164 62.6884 53.1509 63.2397 52.9199L67.751 51.03C68.5804 50.6826 69.076 49.8243 68.9622 48.9323L68.3432 44.0804C68.2675 43.4874 68.4611 42.8917 68.8709 42.4564L72.2235 38.8951C72.8398 38.2403 72.9434 37.2546 72.4767 36.486L69.9378 32.3054C69.6275 31.7945 69.562 31.1715 69.7593 30.6072L71.3735 25.9901C71.6703 25.1412 71.364 24.1987 70.625 23.6864L66.6052 20.8998C66.1139 20.5593 65.8007 20.0168 65.7514 19.4211L65.3481 14.5466C65.2739 13.6504 64.6108 12.9139 63.7273 12.7464L58.9216 11.8358C58.3343 11.7245 57.8275 11.3563 57.5402 10.8321L55.1891 6.54311C54.7569 5.75456 53.8515 5.35145 52.9762 5.55787L48.2157 6.68061C47.6339 6.81783 47.0211 6.6876 46.5454 6.32559L42.6531 3.36363ZM62.2943 36.9255C62.3928 36.0894 62.442 35.2288 62.442 34.3681C62.3928 22.7616 52.9637 13.4174 41.3682 13.442C29.7481 13.4912 20.3929 22.9092 20.4422 34.5648C20.4422 35.4255 20.516 36.2861 20.6145 37.1468C20.7622 38.3271 21.0084 39.4828 21.3531 40.5894C22.067 42.95 23.1995 45.1631 24.6766 47.1057C25.4644 48.1385 26.3507 49.0975 27.3108 49.9828C31.0529 53.4008 36.0506 55.4663 41.516 55.4417C46.9814 55.4172 51.9544 53.327 55.6718 49.8844C56.6566 48.9746 57.5429 47.991 58.3307 46.9336C59.2662 45.6795 60.054 44.3271 60.6941 42.8763C60.9895 42.2123 61.2357 41.5238 61.4573 40.8353C61.5804 40.4418 61.6788 40.073 61.7773 39.6796C61.9989 38.7943 62.1958 37.8599 62.2943 36.9255Z" fill="url(#paint0_linear_254_564)"/>
<g filter="url(#filter1_d_254_564)">
<path fill-rule="evenodd" clip-rule="evenodd" d="M66.0001 34C66.0001 47.8071 54.8072 59 41 59C27.1929 59 16 47.8071 16 34C16 20.1929 27.1929 9 41 9C54.8072 9 66.0001 20.1929 66.0001 34ZM61.8524 36.4835C61.9508 35.6474 62.0001 34.7868 62.0001 33.9261C61.9508 22.3197 52.5218 12.9755 40.9263 13C29.3061 13.0492 19.951 22.4672 20.0002 34.1229C20.0002 34.9835 20.074 35.8442 20.1725 36.7048C20.3202 37.8851 20.5664 39.0409 20.9111 40.1474C21.625 42.5081 22.7575 44.7212 24.2346 46.6638C25.0225 47.6966 25.9087 48.6556 26.8689 49.5408C30.6109 52.9588 35.6086 55.0244 41.074 54.9998C46.5394 54.9752 51.5124 52.885 55.2299 49.4424C56.2146 48.5326 57.1009 47.549 57.8887 46.4916C58.8242 45.2375 59.612 43.8851 60.2521 42.4343C60.5476 41.7704 60.7937 41.0818 61.0153 40.3933C61.1384 39.9999 61.2369 39.631 61.3354 39.2376C61.5569 38.3523 61.7539 37.4179 61.8524 36.4835Z" fill="url(#paint1_linear_254_564)"/>
<path fill-rule="evenodd" clip-rule="evenodd" d="M63.0001 34C63.0001 46.1503 53.1503 56 41 56C28.8498 56 19 46.1503 19 34C19 21.8497 28.8498 12 41 12C53.1503 12 63.0001 21.8497 63.0001 34ZM61.8524 36.4835C61.9508 35.6474 62.0001 34.7868 62.0001 33.9261C61.9508 22.3197 52.5218 12.9755 40.9263 13C29.3061 13.0492 19.951 22.4672 20.0002 34.1229C20.0002 34.9835 20.0741 35.8442 20.1725 36.7048C20.3202 37.8851 20.5664 39.0409 20.9111 40.1474C21.625 42.5081 22.7575 44.7212 24.2346 46.6638C25.0225 47.6966 25.9087 48.6556 26.8689 49.5408C30.6109 52.9588 35.6086 55.0244 41.074 54.9998C46.5394 54.9752 51.5124 52.885 55.2299 49.4424C56.2146 48.5326 57.1009 47.549 57.8887 46.4916C58.8242 45.2375 59.612 43.8851 60.2521 42.4343C60.5476 41.7704 60.7937 41.0818 61.0153 40.3933C61.1384 39.9999 61.2369 39.631 61.3354 39.2376C61.5569 38.3523 61.7539 37.4179 61.8524 36.4835Z" fill="url(#paint2_radial_254_564)" fill-opacity="0.1"/>
</g>
</g>
<defs>
<filter id="filter0_d_254_564" x="-1" y="0" width="84" height="84" filterUnits="userSpaceOnUse" color-interpolation-filters="sRGB">
<feFlood flood-opacity="0" result="BackgroundImageFix"/>
<feColorMatrix in="SourceAlpha" type="matrix" values="0 0 0 0 0 0 0 0 0 0 0 0 0 0 0 0 0 0 127 0" result="hardAlpha"/>
<feOffset dy="8"/>
<feGaussianBlur stdDeviation="5"/>
<feColorMatrix type="matrix" values="0 0 0 0 0.00392157 0 0 0 0 0.0196078 0 0 0 0 0.2 0 0 0 0.08 0"/>
<feBlend mode="normal" in2="BackgroundImageFix" result="effect1_dropShadow_254_564"/>
<feBlend mode="normal" in="SourceGraphic" in2="effect1_dropShadow_254_564" result="shape"/>
</filter>
<filter id="filter1_d_254_564" x="10" y="6" width="62" height="62" filterUnits="userSpaceOnUse" color-interpolation-filters="sRGB">
<feFlood flood-opacity="0" result="BackgroundImageFix"/>
<feColorMatrix in="SourceAlpha" type="matrix" values="0 0 0 0 0 0 0 0 0 0 0 0 0 0 0 0 0 0 127 0" result="hardAlpha"/>
<feOffset dy="3"/>
<feGaussianBlur stdDeviation="3"/>
<feColorMatrix type="matrix" values="0 0 0 0 0.00392157 0 0 0 0 0.0196078 0 0 0 0 0.2 0 0 0 0.08 0"/>
<feBlend mode="normal" in2="BackgroundImageFix" result="effect1_dropShadow_254_564"/>
<feBlend mode="normal" in="SourceGraphic" in2="effect1_dropShadow_254_564" result="shape"/>
</filter>
<linearGradient id="paint0_linear_254_564" x1="10.0827" y1="34.1096" x2="72.7807" y2="34.1096" gradientUnits="userSpaceOnUse">
<stop stop-color="#FFFCA8"/>
<stop offset="0.3123" stop-color="#FDB836"/>
<stop offset="0.7592" stop-color="#FDC966"/>
<stop offset="1" stop-color="#F1DC83"/>
</linearGradient>
<linearGradient id="paint1_linear_254_564" x1="15.9729" y1="33.9918" x2="66.0108" y2="33.9918" gradientUnits="userSpaceOnUse">
<stop stop-color="#FFFCA8"/>
<stop offset="0.3123" stop-color="#FDB836"/>
<stop offset="0.7592" stop-color="#FDC966"/>
<stop offset="1" stop-color="#F1DC83"/>
</linearGradient>
<radialGradient id="paint2_radial_254_564" cx="0" cy="0" r="1" gradientUnits="userSpaceOnUse" gradientTransform="translate(40.989 33.9889) scale(21.9893 21.9893)">
<stop stop-color="white" stop-opacity="0"/>
<stop offset="1" stop-color="#571600"/>
</radialGradient>
</defs>
</svg>
