<svg width="82" height="82" viewBox="0 0 82 82" fill="none" xmlns="http://www.w3.org/2000/svg">
<g filter="url(#filter0_d_254_525)">
<path fill-rule="evenodd" clip-rule="evenodd" d="M43.6653 3.38152C42.1473 2.02517 39.8528 2.02517 38.3349 3.38152L32.3693 8.71198C31.6937 9.31564 30.8332 9.67208 29.9287 9.72293L21.9412 10.172C19.9087 10.2863 18.2863 11.9087 18.172 13.9412L17.7229 21.9287C17.6721 22.8332 17.3156 23.6937 16.712 24.3693L11.3815 30.3349C10.0252 31.8528 10.0252 34.1473 11.3815 35.6653L16.712 41.6308C17.3156 42.3064 17.6721 43.1669 17.7229 44.0715L18.172 52.0589C18.2863 54.0914 19.9087 55.7138 21.9412 55.8281L29.9287 56.2772C30.8332 56.328 31.6937 56.6845 32.3693 57.2881L38.3349 62.6186C39.8528 63.9749 42.1473 63.9749 43.6653 62.6186L49.6308 57.2881C50.3064 56.6845 51.1669 56.328 52.0715 56.2772L60.0589 55.8281C62.0914 55.7138 63.7138 54.0914 63.8281 52.0589L64.2772 44.0715C64.328 43.1669 64.6845 42.3064 65.2881 41.6308L70.6186 35.6653C71.9749 34.1473 71.9749 31.8528 70.6186 30.3349L65.2881 24.3693C64.6845 23.6937 64.328 22.8332 64.2772 21.9286L63.8281 13.9412C63.7138 11.9087 62.0914 10.2863 60.0589 10.172L52.0715 9.72293C51.1669 9.67208 50.3064 9.31564 49.6308 8.71198L43.6653 3.38152ZM61.8524 35.4836C61.9509 34.6475 62.0001 33.7869 62.0001 32.9262C61.9509 21.3197 52.5218 11.9755 40.9263 12.0001C29.3062 12.0493 19.951 21.4673 20.0003 33.1229C20.0003 33.9836 20.0741 34.8442 20.1726 35.7049C20.3203 36.8852 20.5665 38.0409 20.9112 39.1475C21.6251 41.5081 22.7576 43.7212 24.2347 45.6638C25.0225 46.6966 25.9088 47.6556 26.8689 48.5409C30.611 51.9589 35.6086 54.0244 41.074 53.9998C46.5394 53.9753 51.5125 51.8851 55.2299 48.4425C56.2147 47.5327 57.101 46.5491 57.8888 45.4917C58.8243 44.2376 59.6121 42.8852 60.2522 41.4343C60.5476 40.7704 60.7938 40.0819 61.0154 39.3934C61.1385 38.9999 61.2369 38.6311 61.3354 38.2376C61.557 37.3524 61.7539 36.418 61.8524 35.4836Z" fill="url(#paint0_linear_254_525)"/>
<g filter="url(#filter1_d_254_525)">
<path fill-rule="evenodd" clip-rule="evenodd" d="M66.0001 33C66.0001 46.8071 54.8072 58 41 58C27.1929 58 16 46.8071 16 33C16 19.1929 27.1929 8 41 8C54.8072 8 66.0001 19.1929 66.0001 33ZM61.8524 35.4835C61.9508 34.6474 62.0001 33.7868 62.0001 32.9261C61.9508 21.3197 52.5218 11.9755 40.9263 12C29.3061 12.0492 19.951 21.4672 20.0002 33.1229C20.0002 33.9835 20.074 34.8442 20.1725 35.7048C20.3202 36.8851 20.5664 38.0409 20.9111 39.1474C21.625 41.5081 22.7575 43.7212 24.2346 45.6638C25.0225 46.6966 25.9087 47.6556 26.8689 48.5408C30.6109 51.9588 35.6086 54.0244 41.074 53.9998C46.5394 53.9752 51.5124 51.885 55.2299 48.4424C56.2146 47.5326 57.1009 46.549 57.8887 45.4916C58.8242 44.2375 59.612 42.8851 60.2521 41.4343C60.5476 40.7704 60.7937 40.0818 61.0153 39.3933C61.1384 38.9999 61.2369 38.631 61.3354 38.2376C61.5569 37.3523 61.7539 36.4179 61.8524 35.4835Z" fill="url(#paint1_linear_254_525)"/>
<path fill-rule="evenodd" clip-rule="evenodd" d="M63.0001 33C63.0001 45.1503 53.1503 55 41 55C28.8498 55 19 45.1503 19 33C19 20.8497 28.8498 11 41 11C53.1503 11 63.0001 20.8497 63.0001 33ZM61.8524 35.4835C61.9508 34.6474 62.0001 33.7868 62.0001 32.9261C61.9508 21.3197 52.5218 11.9755 40.9263 12C29.3061 12.0492 19.951 21.4672 20.0002 33.1229C20.0002 33.9835 20.0741 34.8442 20.1725 35.7048C20.3202 36.8851 20.5664 38.0409 20.9111 39.1474C21.625 41.5081 22.7575 43.7212 24.2346 45.6638C25.0225 46.6966 25.9087 47.6556 26.8689 48.5408C30.6109 51.9588 35.6086 54.0244 41.074 53.9998C46.5394 53.9752 51.5124 51.885 55.2299 48.4424C56.2146 47.5326 57.1009 46.549 57.8887 45.4916C58.8242 44.2375 59.612 42.8851 60.2521 41.4343C60.5476 40.7704 60.7937 40.0818 61.0153 39.3933C61.1384 38.9999 61.2369 38.631 61.3354 38.2376C61.5569 37.3523 61.7539 36.4179 61.8524 35.4835Z" fill="url(#paint2_radial_254_525)" fill-opacity="0.1"/>
</g>
</g>
<defs>
<filter id="filter0_d_254_525" x="-1" y="-1" width="84" height="84" filterUnits="userSpaceOnUse" color-interpolation-filters="sRGB">
<feFlood flood-opacity="0" result="BackgroundImageFix"/>
<feColorMatrix in="SourceAlpha" type="matrix" values="0 0 0 0 0 0 0 0 0 0 0 0 0 0 0 0 0 0 127 0" result="hardAlpha"/>
<feOffset dy="8"/>
<feGaussianBlur stdDeviation="5"/>
<feColorMatrix type="matrix" values="0 0 0 0 0.00392157 0 0 0 0 0.0196078 0 0 0 0 0.2 0 0 0 0.08 0"/>
<feBlend mode="normal" in2="BackgroundImageFix" result="effect1_dropShadow_254_525"/>
<feBlend mode="normal" in="SourceGraphic" in2="effect1_dropShadow_254_525" result="shape"/>
</filter>
<filter id="filter1_d_254_525" x="10" y="5" width="62" height="62" filterUnits="userSpaceOnUse" color-interpolation-filters="sRGB">
<feFlood flood-opacity="0" result="BackgroundImageFix"/>
<feColorMatrix in="SourceAlpha" type="matrix" values="0 0 0 0 0 0 0 0 0 0 0 0 0 0 0 0 0 0 127 0" result="hardAlpha"/>
<feOffset dy="3"/>
<feGaussianBlur stdDeviation="3"/>
<feColorMatrix type="matrix" values="0 0 0 0 0.00392157 0 0 0 0 0.0196078 0 0 0 0 0.2 0 0 0 0.08 0"/>
<feBlend mode="normal" in2="BackgroundImageFix" result="effect1_dropShadow_254_525"/>
<feBlend mode="normal" in="SourceGraphic" in2="effect1_dropShadow_254_525" result="shape"/>
</filter>
<linearGradient id="paint0_linear_254_525" x1="10.331" y1="32.99" x2="71.649" y2="32.99" gradientUnits="userSpaceOnUse">
<stop stop-color="#FFF8C1"/>
<stop offset="0.0001" stop-color="#C2E8FD"/>
<stop offset="0.3123" stop-color="#919191"/>
<stop offset="0.7592" stop-color="#DDDDDD"/>
<stop offset="1" stop-color="#E3E3E3"/>
</linearGradient>
<linearGradient id="paint1_linear_254_525" x1="15.9729" y1="32.9918" x2="66.0108" y2="32.9918" gradientUnits="userSpaceOnUse">
<stop stop-color="#FFF8C1"/>
<stop offset="0.0001" stop-color="#C2E8FD"/>
<stop offset="0.3123" stop-color="#919191"/>
<stop offset="0.7592" stop-color="#DDDDDD"/>
<stop offset="1" stop-color="white"/>
</linearGradient>
<radialGradient id="paint2_radial_254_525" cx="0" cy="0" r="1" gradientUnits="userSpaceOnUse" gradientTransform="translate(40.989 32.9889) scale(21.9893 21.9893)">
<stop stop-color="white" stop-opacity="0"/>
<stop offset="1" stop-color="#571600"/>
</radialGradient>
</defs>
</svg>
