<svg width="109" height="57" viewBox="0 0 109 57" fill="none" xmlns="http://www.w3.org/2000/svg">
<path d="M108.778 35.3231C108.778 52.2022 84.5035 39.3981 54.5594 39.3981C24.6153 39.3981 0.34082 52.2022 0.34082 35.3231C0.34082 18.444 24.6153 4.76074 54.5594 4.76074C84.5035 4.76074 108.778 18.444 108.778 35.3231Z" fill="#DE8383"/>
<path fill-rule="evenodd" clip-rule="evenodd" d="M3.41211 42.4443C10.8441 30.5624 30.9376 22.0474 54.5593 22.0474C78.181 22.0474 98.2745 30.5624 105.707 42.4443C101.54 45.2033 93.3938 43.9112 82.8775 42.2431C74.6357 40.9358 64.938 39.3976 54.5593 39.3976C44.1806 39.3976 34.483 40.9358 26.2412 42.2431C15.7248 43.9112 7.5787 45.2033 3.41211 42.4443Z" fill="#C06E6E"/>
<path fill-rule="evenodd" clip-rule="evenodd" d="M101.746 20.2591H7.37305C16.6915 11.0041 34.3319 4.76025 54.5594 4.76025C74.787 4.76025 92.4274 11.0041 101.746 20.2591Z" fill="#F9F9F9"/>
</svg>
