<svg width="63" height="57" viewBox="0 0 63 57" fill="none" xmlns="http://www.w3.org/2000/svg">
<path d="M62.9813 18.3822C62.9813 35.297 48.9091 49.0092 31.5502 49.0092C14.1913 49.0092 0.119141 35.297 0.119141 18.3822C0.119141 1.46733 4.30995 3.5119 31.5502 3.51164C56.695 3.5114 62.9813 1.46733 62.9813 18.3822Z" fill="#DE8383"/>
<path fill-rule="evenodd" clip-rule="evenodd" d="M62.754 19.6529H0.264777C0.251059 19.262 0.244141 18.8694 0.244141 18.4751C0.244141 2.62105 3.57507 2.65174 23.6356 2.83657C26.017 2.85851 28.6341 2.88262 31.5094 2.88259C34.1372 2.88257 36.558 2.85889 38.7862 2.83709C57.7665 2.65141 62.7746 2.60241 62.7746 18.4751C62.7746 18.8694 62.7677 19.262 62.754 19.6529Z" fill="#F9F9F9"/>
</svg>
