<svg width="63" height="57" viewBox="0 0 63 57" fill="none" xmlns="http://www.w3.org/2000/svg">
<path d="M62.2466 16.3524C62.2466 33.2316 48.5263 46.9148 31.6013 46.9148C14.6764 46.9148 0.956055 33.2316 0.956055 16.3524C0.956055 -0.52671 14.6764 12.2775 31.6013 12.2775C48.5263 12.2775 62.2466 -0.52671 62.2466 16.3524Z" fill="#DE8383"/>
<path fill-rule="evenodd" clip-rule="evenodd" d="M60.8309 25.3774H2.31919C1.36247 22.438 0.125 19.3113 0.125 16.0624C0.125 4.97563 6.13639 6.62366 15.1488 9.10107C19.9295 10.4153 25.5547 11.9616 31.575 11.9616C37.5953 11.9616 43.2206 10.4153 48.0013 9.10107C57.0137 6.62366 62.2937 5.70701 62.2937 16.7938C62.2937 20.0427 61.7876 22.438 60.8309 25.3774Z" fill="#F9F9F9"/>
<path fill-rule="evenodd" clip-rule="evenodd" d="M54.3884 36.0047C48.9598 42.9969 40.678 47.4645 31.3992 47.4645C22.3474 47.4645 14.2444 43.2128 8.81348 36.5134C12.9359 31.5096 21.6889 28.0566 31.8208 28.0566C41.6057 28.0566 50.1045 31.2771 54.3884 36.0047Z" fill="#C06E6E"/>
</svg>
