<svg width="63" height="57" viewBox="0 0 63 57" fill="none" xmlns="http://www.w3.org/2000/svg">
<path d="M62.9355 15.0145C62.9355 32.1296 49.0609 46.0042 31.9458 46.0042C14.8306 46.0042 0.956055 32.1296 0.956055 15.0145C0.956055 -2.10067 14.8306 10.8826 31.9458 10.8826C49.0609 10.8826 62.9355 -2.10067 62.9355 15.0145Z" fill="#DE8383"/>
<path fill-rule="evenodd" clip-rule="evenodd" d="M60.2942 6.97383C55.4583 17.7908 44.6038 25.3283 31.9889 25.3283C19.374 25.3283 8.51953 17.7908 3.68359 6.97382C6.24543 5.30827 10.4963 6.50443 15.8031 7.99773C20.5139 9.32332 26.0567 10.8831 31.9889 10.8831C37.9211 10.8831 43.464 9.32332 48.1748 7.99774C53.4816 6.50443 57.7324 5.30827 60.2942 6.97383Z" fill="#F9F9F9"/>
</svg>
