<svg width="63" height="57" viewBox="0 0 63 57" fill="none" xmlns="http://www.w3.org/2000/svg">
<path d="M62.2314 19.3538C62.2314 36.469 48.3568 50.3436 31.2417 50.3436C14.1265 50.3436 0.251953 36.469 0.251953 19.3538C0.251953 2.23869 14.1265 15.2219 31.2417 15.2219C48.3568 15.2219 62.2314 2.23869 62.2314 19.3538Z" fill="#DE8383"/>
<path fill-rule="evenodd" clip-rule="evenodd" d="M60.8392 28.5659H1.64416C0.739361 25.6557 0.251953 22.5617 0.251953 19.3538C0.251953 8.17087 6.17536 9.83769 15.0558 12.3366C19.7666 13.6622 25.3095 15.2219 31.2417 15.2219C37.1739 15.2219 42.7167 13.6622 47.4275 12.3366C56.308 9.83769 62.2314 8.17087 62.2314 19.3538C62.2314 22.5617 61.744 25.6557 60.8392 28.5659Z" fill="#F9F9F9"/>
</svg>
