<svg width="63" height="57" viewBox="0 0 63 57" fill="none" xmlns="http://www.w3.org/2000/svg">
<path d="M62.2314 14.8656C62.2314 31.9807 48.3568 45.8553 31.2417 45.8553C14.1265 45.8553 0.251953 31.9807 0.251953 14.8656C0.251953 -2.24959 14.1265 10.7336 31.2417 10.7336C48.3568 10.7336 62.2314 -2.24959 62.2314 14.8656Z" fill="#DE8383"/>
<path fill-rule="evenodd" clip-rule="evenodd" d="M52.1126 35.2266C46.5228 41.6929 39.0746 45.6387 30.8966 45.6387C22.7186 45.6387 15.2704 41.6929 9.68066 35.2266C15.2704 28.7603 22.7187 24.8145 30.8966 24.8145C39.0746 24.8145 46.5228 28.7603 52.1126 35.2266Z" fill="#DE8383"/>
<path fill-rule="evenodd" clip-rule="evenodd" d="M59.6124 6.83956C54.7877 17.6834 43.9192 25.2442 31.2847 25.2442C18.6503 25.2442 7.7818 17.6834 2.95703 6.83955C5.51645 5.15236 9.77659 6.35115 15.0989 7.84881C19.8097 9.1744 25.3525 10.7341 31.2847 10.7341C37.2169 10.7341 42.7598 9.1744 47.4706 7.84881C52.7929 6.35114 57.053 5.15237 59.6124 6.83956Z" fill="#F9F9F9"/>
</svg>
