<svg width="82" height="57" viewBox="0 0 82 57" fill="none" xmlns="http://www.w3.org/2000/svg">
<path fill-rule="evenodd" clip-rule="evenodd" d="M10.5151 27.8644C9.05255 29.0463 7.53254 30.2747 5.99884 31.3853C4.57488 32.4165 2.58463 32.098 1.55349 30.6741C0.522345 29.2501 0.840785 27.2599 2.26474 26.2287C3.66623 25.2138 4.95437 24.172 6.33419 23.056C7.05767 22.4709 7.80635 21.8654 8.6098 21.2327C10.8698 19.4529 13.3752 17.6177 16.3867 15.9822C22.4834 12.671 30.3457 10.3438 42.2306 10.3438C61.6563 10.3438 75.6569 21.1127 80.4177 26.754C81.5515 28.0975 81.3815 30.1059 80.0379 31.2398C78.6943 32.3737 76.686 32.2037 75.5521 30.8601C71.7162 26.3147 59.3798 16.7104 42.2306 16.7104C31.2562 16.7104 24.4651 18.8398 19.4252 21.5769C16.8685 22.9655 14.6848 24.5524 12.5488 26.2345C11.8869 26.7558 11.2074 27.3049 10.5151 27.8644Z" fill="black"/>
</svg>
