<svg width="63" height="63" viewBox="0 0 63 63" fill="none" xmlns="http://www.w3.org/2000/svg">
<path d="M62.7812 31.8603C62.7812 48.9755 48.9066 62.85 31.7915 62.85C14.6763 62.85 0.801758 48.9755 0.801758 31.8603C0.801758 14.7452 14.6763 0.870605 31.7915 0.870605C48.9066 0.870605 62.7812 14.7452 62.7812 31.8603Z" fill="#DE8383"/>
<path fill-rule="evenodd" clip-rule="evenodd" d="M8.62305 52.4851C14.28 44.9981 23.257 40.1597 33.3641 40.1597C42.5591 40.1597 50.8189 44.1644 56.4943 50.5248C50.8373 58.0118 41.8603 62.8502 31.7533 62.8502C22.5582 62.8502 14.2984 58.8455 8.62305 52.4851Z" fill="#C06E6E"/>
<path fill-rule="evenodd" clip-rule="evenodd" d="M60.39 19.432H3.47266C8.27251 8.50437 19.2085 0.870605 31.9313 0.870605C44.6541 0.870605 55.5901 8.50437 60.39 19.432Z" fill="#F9F9F9"/>
</svg>
