<svg width="81" height="57" viewBox="0 0 81 57" fill="none" xmlns="http://www.w3.org/2000/svg">
<path fill-rule="evenodd" clip-rule="evenodd" d="M71.2261 12.9486C72.6882 11.6686 74.2065 10.3393 75.7394 9.13673C77.1227 8.0516 79.1237 8.29327 80.2088 9.67652C81.294 11.0598 81.0523 13.0608 79.6691 14.1459C78.2669 15.2459 76.9772 16.3759 75.5967 17.5855C74.8734 18.2192 74.1252 18.8748 73.3228 19.5593C71.0652 21.4853 68.5595 23.4741 65.5443 25.2481C59.4306 28.8452 51.5338 31.3779 39.6054 31.3779C20.0749 31.3779 6.05994 19.6567 1.33988 13.5976C0.259462 12.2107 0.507944 10.2105 1.89488 9.13006C3.28182 8.04963 5.28201 8.29811 6.36244 9.68505C10.239 14.6614 22.5611 25.0113 39.6054 25.0113C50.5364 25.0113 57.293 22.716 62.3158 19.7608C64.8689 18.2586 67.0523 16.5401 69.1907 14.7158C69.8536 14.1502 70.5336 13.5549 71.2261 12.9486Z" fill="black"/>
</svg>
