<svg width="87" height="57" viewBox="0 0 87 57" fill="none" xmlns="http://www.w3.org/2000/svg">
<path fill-rule="evenodd" clip-rule="evenodd" d="M2.78535 17.9889C4.18909 17.9012 5.39817 18.968 5.4859 20.3718C5.6745 23.3893 6.82959 27.9829 9.60958 31.7524C12.3087 35.4122 16.5653 38.3572 23.3175 38.3572C30.0696 38.3572 34.3262 35.4122 37.0254 31.7524C39.8053 27.9829 40.9604 23.3893 41.149 20.3718C41.2339 19.0143 42.3705 17.9631 43.7304 17.9843C45.0904 18.0055 46.1937 19.0916 46.2361 20.4511C46.33 23.4533 47.3654 28.0196 50.0941 31.7641C52.7351 35.3881 57.0284 38.3572 64.064 38.3572C71.0996 38.3572 75.3929 35.3881 78.0339 31.7641C80.7626 28.0196 81.798 23.4533 81.8918 20.4511C81.9358 19.0453 83.111 17.9413 84.5168 17.9852C85.9226 18.0291 87.0266 19.2044 86.9827 20.6102C86.8643 24.3991 85.6077 30.0193 82.1501 34.7638C78.6049 39.6286 72.8177 43.4506 64.064 43.4506C55.3103 43.4506 49.5231 39.6286 45.9778 34.7638C45.0159 33.4438 44.2243 32.056 43.5802 30.6587C42.9122 32.0601 42.1004 33.4521 41.1245 34.7755C37.5631 39.6045 31.8453 43.4506 23.3175 43.4506C14.7897 43.4506 9.07186 39.6045 5.51046 34.7755C2.02992 30.0561 0.638353 24.463 0.402507 20.6895C0.314773 19.2857 1.38161 18.0767 2.78535 17.9889Z" fill="black"/>
</svg>
