<svg width="63" height="57" viewBox="0 0 63 57" fill="none" xmlns="http://www.w3.org/2000/svg">
<path d="M62.7831 40.124C62.7831 57.2391 48.9086 44.256 31.7934 44.256C14.6783 44.256 0.803711 57.2391 0.803711 40.124C0.803711 23.0088 14.6783 9.13428 31.7934 9.13428C48.9086 9.13428 62.7831 23.0088 62.7831 40.124Z" fill="#DE8383"/>
<path fill-rule="evenodd" clip-rule="evenodd" d="M4.38184 47.3115C8.79665 35.7662 19.7976 27.5869 32.6698 27.5869C45.542 27.5869 56.5429 35.7662 60.9577 47.3115C58.5359 49.6113 54.132 48.3462 48.5246 46.7354C43.9101 45.4098 38.4806 43.8501 32.6698 43.8501C26.8589 43.8501 21.4294 45.4098 16.815 46.7354C11.2075 48.3462 6.80369 49.6113 4.38184 47.3115Z" fill="#C06E6E"/>
<path fill-rule="evenodd" clip-rule="evenodd" d="M56.9327 21.979H7.5752C12.9868 13.6675 22.0219 8.22266 32.2539 8.22266C42.486 8.22266 51.5211 13.6675 56.9327 21.979Z" fill="#F9F9F9"/>
</svg>
