<svg width="57" height="56" viewBox="0 0 57 56" fill="none" xmlns="http://www.w3.org/2000/svg">
<path fill-rule="evenodd" clip-rule="evenodd" d="M20.0997 47.4732C20.0586 46.0673 21.1649 44.8943 22.5707 44.8531C25.8108 44.7581 30.6272 44.183 34.5465 42.8281C36.5124 42.1485 38.076 41.3319 39.1066 40.4238C40.091 39.5564 40.4719 38.7256 40.4719 37.8487C40.4719 36.9718 40.091 36.1409 39.1066 35.2735C38.076 34.3654 36.5124 33.5489 34.5465 32.8693C30.6272 31.5143 25.8108 30.9392 22.5707 30.8443C21.1866 30.8037 20.0886 29.6647 20.0987 28.2801C20.1089 26.8954 21.2235 25.7726 22.608 25.7523C25.8428 25.7049 30.6485 25.1865 34.5554 23.8519C36.5136 23.183 38.0678 22.3681 39.092 21.4516C40.0648 20.5811 40.4719 19.7133 40.4719 18.7487C40.4719 17.7842 40.0648 16.9164 39.092 16.0459C38.0678 15.1293 36.5136 14.3144 34.5554 13.6455C30.6485 12.3109 25.8428 11.7925 22.608 11.7451C21.2017 11.7246 20.0783 10.5678 20.0989 9.16146C20.1195 7.75513 21.2763 6.63178 22.6826 6.65238C26.2389 6.70448 31.6198 7.26044 36.2018 8.82567C38.4881 9.60664 40.7538 10.698 42.4885 12.2504C44.2746 13.8488 45.5652 16.0126 45.5652 18.7487C45.5652 21.4848 44.2746 23.6486 42.4885 25.247C40.9711 26.605 39.0472 27.6102 37.0588 28.3635C39.0423 29.1201 40.9605 30.1186 42.4739 31.4521C44.2484 33.0157 45.5652 35.1443 45.5652 37.8487C45.5652 40.553 44.2484 42.6816 42.4739 44.2452C40.7456 45.7682 38.4893 46.8541 36.2107 47.6419C31.6412 49.2215 26.2709 49.8402 22.7199 49.9442C21.314 49.9854 20.1409 48.8791 20.0997 47.4732Z" fill="black"/>
</svg>
