<svg width="63" height="57" viewBox="0 0 63 57" fill="none" xmlns="http://www.w3.org/2000/svg">
<path d="M62.2314 17.1517C62.2314 34.2668 48.3568 48.1414 31.2417 48.1414C14.1265 48.1414 0.251953 34.2668 0.251953 17.1517C0.251953 0.0365381 14.1265 13.0198 31.2417 13.0198C48.3568 13.0198 62.2314 0.0365381 62.2314 17.1517Z" fill="#DE8383"/>
<path fill-rule="evenodd" clip-rule="evenodd" d="M60.8774 26.2398H1.60591C0.725634 23.3658 0.251953 20.3141 0.251953 17.1517C0.251953 5.96872 6.17536 7.63554 15.0558 10.1345C19.7666 11.46 25.3095 13.0198 31.2417 13.0198C37.1739 13.0198 42.7167 11.46 47.4275 10.1345C56.308 7.63554 62.2314 5.96872 62.2314 17.1517C62.2314 20.3141 61.7577 23.3658 60.8774 26.2398Z" fill="#F9F9F9"/>
<path fill-rule="evenodd" clip-rule="evenodd" d="M54.1691 36.4867C48.5655 44.128 40.473 48.927 31.4741 48.927C22.5581 48.927 14.5319 44.216 8.93457 36.6972C13.5383 31.3495 21.9855 27.7661 31.6439 27.7661C41.1749 27.7661 49.5265 31.2556 54.1691 36.4867Z" fill="#C06E6E"/>
</svg>
