<svg width="63" height="57" viewBox="0 0 63 57" fill="none" xmlns="http://www.w3.org/2000/svg">
<path d="M62.9355 19.3538C62.9355 36.469 49.0609 50.3436 31.9458 50.3436C14.8306 50.3436 0.956055 36.469 0.956055 19.3538C0.956055 2.23869 14.8306 15.2219 31.9458 15.2219C49.0609 15.2219 62.9355 2.23869 62.9355 19.3538Z" fill="#DE8383"/>
<path fill-rule="evenodd" clip-rule="evenodd" d="M61.5433 28.5659H2.34826C1.44346 25.6557 0.956055 22.5617 0.956055 19.3538C0.956055 8.17087 6.87947 9.83769 15.7599 12.3366C20.4707 13.6622 26.0136 15.2219 31.9458 15.2219C37.878 15.2219 43.4208 13.6622 48.1316 12.3366C57.0121 9.83769 62.9355 8.17087 62.9355 19.3538C62.9355 22.5617 62.4481 25.6557 61.5433 28.5659Z" fill="#F9F9F9"/>
</svg>
