<svg width="63" height="57" viewBox="0 0 63 57" fill="none" xmlns="http://www.w3.org/2000/svg">
<path d="M62.9803 19.1048C62.9803 36.0196 48.9081 49.7318 31.5492 49.7318C14.1903 49.7318 0.118164 36.0196 0.118164 19.1048C0.118164 2.18998 4.30897 4.23456 31.5492 4.2343C56.6941 4.23406 62.9803 2.18998 62.9803 19.1048Z" fill="#DE8383"/>
<path fill-rule="evenodd" clip-rule="evenodd" d="M62.7736 17.7056H0.113281C0.32709 3.58525 4.20008 3.61894 23.6401 3.79434C26.022 3.81583 28.6397 3.83945 31.5157 3.83943C34.1442 3.8394 36.5655 3.8162 38.7943 3.79485C57.1881 3.61863 62.463 3.5681 62.7736 17.7056Z" fill="#F9F9F9"/>
<path fill-rule="evenodd" clip-rule="evenodd" d="M57.7535 35.6981C52.0993 43.7886 42.5375 49.106 31.6939 49.106C20.6541 49.106 10.9428 43.5943 5.33105 35.256C10.9941 30.7114 20.5019 27.73 31.2757 27.73C42.3952 27.73 52.1661 30.9058 57.7535 35.6981Z" fill="#C06E6E"/>
</svg>
