<svg width="100" height="57" viewBox="0 0 100 57" fill="none" xmlns="http://www.w3.org/2000/svg">
<path d="M0.0693359 25.4179C0.0693359 16.0453 7.66733 8.44727 17.0399 8.44727H82.6595C92.0321 8.44727 99.6301 16.0453 99.6301 25.4179C99.6301 34.7904 92.0321 42.3884 82.6595 42.3884H17.0399C7.66733 42.3884 0.0693359 34.7904 0.0693359 25.4179Z" fill="#DE8383"/>
<path fill-rule="evenodd" clip-rule="evenodd" d="M95.7516 34.9456C93.2409 39.1793 88.6247 42.0176 83.3456 42.0176H15.6355C10.3564 42.0176 5.74013 39.1793 3.22949 34.9455C5.74013 30.7118 10.3564 27.8735 15.6355 27.8735H83.3456C88.6247 27.8735 93.2409 30.7118 95.7516 34.9456Z" fill="#C06E6E"/>
<path fill-rule="evenodd" clip-rule="evenodd" d="M99.6164 23.7259H0.0830078C0.44375 14.6721 7.8976 7.44287 17.0399 7.44287H82.6595C91.8018 7.44287 99.2557 14.6721 99.6164 23.7259Z" fill="#F9F9F9"/>
</svg>
