<svg width="67" height="57" viewBox="0 0 67 57" fill="none" xmlns="http://www.w3.org/2000/svg">
<path d="M66.6583 22.888C66.6583 39.757 51.8587 53.4321 33.6026 53.4321C15.3464 53.4321 0.546875 39.757 0.546875 22.888C0.546875 6.01901 4.9543 8.05792 33.6026 8.05779C67.5348 8.05763 66.6583 6.01901 66.6583 22.888Z" fill="#DE8383"/>
<path fill-rule="evenodd" clip-rule="evenodd" d="M61.1401 8.69887C56.1085 13.5332 45.7873 17.7837 33.8723 17.7837C22.3543 17.7837 12.3259 13.8118 7.125 9.18019C9.96183 7.93171 15.8349 7.95244 27.5218 7.99367C29.8476 8.00188 32.4036 8.01089 35.2118 8.01088C37.7782 8.01087 40.1425 8.00202 42.3187 7.99386C51.7246 7.95863 57.6172 7.93656 61.1401 8.69887Z" fill="#F9F9F9"/>
</svg>
