<svg width="380" height="401" viewBox="0 0 380 401" fill="none" xmlns="http://www.w3.org/2000/svg">
<path d="M293.138 88.6924C257.959 38.7228 171.603 25.3922 120.283 58.129C68.9623 90.8658 57.5315 145.235 65.1338 204.834C68.2084 228.937 72.0742 247.855 74.1879 268.253C80.7468 331.548 167.096 363 192.717 363C233.05 363 301.006 318.683 309.483 268.253C317.207 222.301 316.412 225.932 317.009 204.834C317.605 183.736 328.317 138.662 293.138 88.6924Z" fill="#F8B788"/>
<path d="M309.33 268.575C300.858 319.076 232.945 363.455 192.637 363.455C168.578 363.455 90.9468 335.65 76.2139 279.718C98.7808 327.324 168.846 351 191.771 351C230.72 351 294.649 312.137 309.797 265.784C309.644 266.694 309.49 267.624 309.33 268.575Z" fill="#CD9166"/>
</svg>
