<svg width="380" height="399" viewBox="0 0 380 399" fill="none" xmlns="http://www.w3.org/2000/svg">
<path d="M325 211.374C325 282.965 264.558 341 190 341C115.442 341 55 282.965 55 211.374C55 139.784 115.442 55 190 55C264.558 55 325 139.784 325 211.374Z" fill="#F8B788"/>
<path d="M324.628 204.805C324.873 208.098 325 211.372 325 214.619C325 286.108 264.558 344.061 190 344.061C115.442 344.061 55.0002 286.108 55 214.619C55 211.372 55.1261 208.098 55.3711 204.805C60.5209 271.786 118.828 324.594 190 324.594C261.172 324.594 319.478 271.786 324.628 204.805Z" fill="#D99D72"/>
</svg>
