<svg width="380" height="398" viewBox="0 0 380 398" fill="none" xmlns="http://www.w3.org/2000/svg">
<path d="M64 182.489C64 102.138 120.636 37 190.5 37C260.364 37 317 102.138 317 182.489C317 262.841 260.364 358 190.5 358C120.636 358 64 262.841 64 182.489Z" fill="#F8B788"/>
<path d="M190.5 361C120.636 361 64 265.819 64 185.45C64 184.129 64.0164 182.811 64.0469 181.498C65.8676 260.995 121.785 353.07 190.5 353.07C259.215 353.07 315.133 260.995 316.954 181.498C316.985 182.811 317 184.129 317 185.45C317 265.819 260.364 361 190.5 361Z" fill="#D99D72"/>
</svg>
