<svg width="380" height="399" viewBox="0 0 380 399" fill="none" xmlns="http://www.w3.org/2000/svg">
<path d="M69 111.256C69 95.0984 82.0984 82 98.2561 82H283.744C299.902 82 313 95.0984 313 111.256V352.744C313 368.902 299.902 382 283.744 382H98.2561C82.0984 382 69 368.902 69 352.744V111.256Z" fill="#F8B788"/>
<path d="M312.314 134.392C312.353 135.008 312.375 135.629 312.375 136.255V352.294C312.375 368.452 299.277 381.55 283.119 381.55H98.3164C82.1589 381.55 69.0606 368.452 69.0605 352.294V332.157C70.0209 347.447 82.7237 359.551 98.2559 359.551H283.059C299.216 359.551 312.314 346.452 312.314 330.294V134.392Z" fill="#CD9166"/>
</svg>
