<svg width="380" height="401" viewBox="0 0 380 401" fill="none" xmlns="http://www.w3.org/2000/svg">
<path d="M309 268.655C309.283 270.176 309.429 271.714 309.429 273.268C309.429 303.14 256.106 350.688 190.329 350.688C124.553 350.688 71.2305 303.14 71.2305 273.268C71.2305 272.844 71.2423 272.421 71.2637 272H71V148H309V268.655Z" fill="#F8B788"/>
<path d="M71.2305 253.621H71.2471C71.2373 253.907 71.2305 254.194 71.2305 254.48C71.231 284.353 124.554 331.901 190.33 331.901C256.107 331.901 309.429 284.353 309.43 254.48C309.43 254.194 309.423 253.907 309.413 253.621H309.43V272.408H309.413C309.423 272.694 309.43 272.981 309.43 273.268C309.429 303.14 256.106 350.688 190.33 350.688C124.554 350.688 71.2314 303.14 71.2305 273.268C71.2305 272.981 71.2373 272.694 71.2471 272.408H71.2305V253.621Z" fill="#CD9166"/>
<path d="M309 152.5C309 208.359 254.804 254.284 189.053 254.284C123.302 254.284 70 209.001 70 153.142C70 97.2828 123.302 52 189.053 52C254.804 52 309 96.6408 309 152.5Z" fill="#F8B788"/>
</svg>
