<svg width="78" height="78" viewBox="0 0 78 78" fill="none" xmlns="http://www.w3.org/2000/svg">
<path d="M39.2656 9C45.5028 9.00006 50.5586 14.0567 50.5586 20.2939V38.7354C50.7555 38.7251 50.9538 38.7197 51.1533 38.7197C57.3906 38.7197 62.4473 43.7764 62.4473 50.0137C62.4471 56.2508 57.3905 61.3066 51.1533 61.3066C50.8229 61.3066 50.4961 61.2895 50.1729 61.2617C48.8833 66.0797 44.4903 69.6288 39.2656 69.6289C34.0407 69.6289 29.6459 66.0799 28.3564 61.2617C28.0339 61.2894 27.7077 61.3066 27.3779 61.3066C21.1408 61.3066 16.0841 56.2508 16.084 50.0137C16.084 43.7764 21.1407 38.7197 27.3779 38.7197C27.5771 38.7197 27.7751 38.7242 27.9717 38.7344V20.2939C27.9717 14.0567 33.0284 9 39.2656 9Z" fill="#F8B788"/>
<path d="M61.7686 46.1968C62.1519 47.3319 62.3633 48.5466 62.3633 49.811C62.3631 56.0481 57.3065 61.104 51.0693 61.104C50.7389 61.104 50.4121 61.0869 50.0889 61.0591C48.7993 65.877 44.4063 69.4262 39.1816 69.4263C33.9568 69.4263 29.5619 65.8773 28.2725 61.0591C27.9499 61.0868 27.6237 61.104 27.2939 61.104C21.0568 61.104 16.0002 56.0481 16 49.811C16 48.5467 16.2105 47.3318 16.5938 46.1968C18.1012 50.661 22.321 53.8755 27.2939 53.8755C27.6237 53.8755 27.9499 53.8583 28.2725 53.8306C29.5619 58.6488 33.9568 62.1978 39.1816 62.1978C44.4063 62.1977 48.7993 58.6485 50.0889 53.8306C50.4121 53.8584 50.7389 53.8755 51.0693 53.8755C56.0422 53.8755 60.261 50.6608 61.7686 46.1968Z" fill="#CD9166"/>
</svg>
