<svg width="78" height="78" viewBox="0 0 78 78" fill="none" xmlns="http://www.w3.org/2000/svg">
<rect x="61.4258" y="55.7637" width="44.4258" height="33.7636" rx="16.8818" transform="rotate(-180 61.4258 55.7637)" fill="#F8B788"/>
<rect x="25.8848" y="51.4609" width="11.691" height="8.88516" rx="4.44258" transform="rotate(-90 25.8848 51.4609)" fill="#CD9166"/>
<rect x="43.6553" y="51.4609" width="11.691" height="8.88516" rx="4.44258" transform="rotate(-90 43.6553 51.4609)" fill="#CD9166"/>
<path d="M44.5439 22C53.8675 22 61.4258 29.5583 61.4258 38.8818C61.4258 39.7313 61.3623 40.566 61.2412 41.3818C60.0331 33.2438 53.018 27 44.5439 27H33.8818C25.4077 27 18.3916 33.2438 17.1836 41.3818C17.0625 40.5661 17 39.7313 17 38.8818C17 29.5583 24.5583 22 33.8818 22H44.5439Z" fill="#CD9166"/>
</svg>
