<svg width="78" height="78" viewBox="0 0 78 78"  xmlns="http://www.w3.org/2000/svg">
<path d="M38.6191 18C44.1667 18.0002 48.664 22.4974 48.6641 28.0449V31.7588C48.839 31.7497 49.0152 31.7461 49.1924 31.7461C54.7401 31.7461 59.2373 36.2433 59.2373 41.791C59.2372 47.3387 54.7401 51.8359 49.1924 51.8359C48.8985 51.8359 48.6078 51.8206 48.3203 51.7959C47.1733 56.0811 43.2661 59.2371 38.6191 59.2373C33.9719 59.2373 30.0629 56.0814 28.916 51.7959C28.6289 51.8206 28.3384 51.8359 28.0449 51.8359C22.4973 51.8359 18.0001 47.3386 18 41.791C18 36.2433 22.4973 31.7462 28.0449 31.7461C28.2224 31.7461 28.399 31.7497 28.5742 31.7588V28.0449C28.5743 22.4972 33.0715 18 38.6191 18Z" />
<path d="M58.752 38.3418C59.1126 39.377 59.3115 40.4883 59.3115 41.6465C59.3114 47.1942 54.8143 51.6914 49.2666 51.6914C48.9727 51.6914 48.682 51.6761 48.3945 51.6514C47.2475 55.9366 43.3403 59.0926 38.6934 59.0928C34.0461 59.0928 30.1372 55.9369 28.9902 51.6514C28.7031 51.676 28.4127 51.6914 28.1191 51.6914C22.5715 51.6913 18.0743 47.1941 18.0742 41.6465C18.0742 40.4885 18.2722 39.3769 18.6328 38.3418C19.9996 42.2656 23.7295 45.082 28.1191 45.082C28.4127 45.082 28.7031 45.0667 28.9902 45.042C30.1372 49.3275 34.0461 52.4834 38.6934 52.4834C43.3403 52.4832 47.2475 49.3272 48.3945 45.042C48.682 45.0667 48.9727 45.082 49.2666 45.082C53.6562 45.082 57.3851 42.2655 58.752 38.3418Z" fill="#CD9166"/>
</svg>
