<svg width="78" height="78" viewBox="0 0 78 78"  xmlns="http://www.w3.org/2000/svg">
<path d="M25.5691 31.1671C26.2297 24.2675 32.0257 19 38.9567 19C45.7259 19 51.4402 24.0311 52.2973 30.7458L53.6684 41.4859C54.7868 50.2469 47.9606 58 39.1284 58C30.4811 58 23.713 50.553 24.5372 41.945L25.5691 31.1671Z" />
<path d="M24.6172 39.3384C26.011 45.9129 31.8503 50.9468 38.96 50.9468C46.0086 50.9467 51.7792 46.0086 53.2539 39.561L53.5 41.4858C54.6184 50.2468 47.792 58.0004 38.96 58.0005C30.3126 58.0005 23.544 50.5528 24.3682 41.9448L24.6172 39.3384Z" fill="#CD9166"/>
</svg>
