<svg width="552" height="552" viewBox="0 0 552 552" fill="none" xmlns="http://www.w3.org/2000/svg">
<path d="M431 317.5V309.5C431 223.62 361.38 154 275.5 154C189.62 154 120 223.62 120 309.5V317.5C120 403.38 189.62 473 275.5 473C361.38 473 431 403.38 431 317.5Z" fill="#292323"/>
<path d="M94.5003 288.5C99.1394 318.791 110.276 384.675 140 421.5C187.276 493.675 399.134 533.095 429.225 398.325C468.036 224.5 449.725 138 334 138C237.956 138 193.834 157.5 177.5 189.5C139.5 161.5 86.0003 233 94.5003 288.5Z" fill="#292323"/>
</svg>
