<svg width="552" height="552" viewBox="0 0 552 552" fill="none" xmlns="http://www.w3.org/2000/svg">
<path d="M73.0056 341.5C22.0894 390.558 92.2838 416.17 122.005 450.5C143 480.386 206.505 487 249.005 470.5C301.026 483.6 297.512 514.841 353.505 487C443.495 492.067 430.172 431.612 452.152 419.5C483.005 402.5 515.001 363.595 483.005 330.5C483.005 289.481 481.454 251.1 452.152 224.204C439.19 164.765 428.155 147.053 369.662 147.053C330.666 113.266 303.185 143.413 279.172 122.122C209.582 60.4198 160.329 157.548 143.998 187.38C121.516 171.935 82.695 205.559 88.6943 248.442C45.6992 275.012 91.5743 323.609 73.0056 341.5Z" fill="#292323"/>
</svg>
