<svg width="552" height="552" viewBox="0 0 552 552" fill="none" xmlns="http://www.w3.org/2000/svg">
<path d="M431 317.5V309.5C431 223.62 361.38 154 275.5 154C189.62 154 120 223.62 120 309.5V317.5C120 403.38 189.62 473 275.5 473C361.38 473 431 403.38 431 317.5Z" fill="#292323"/>
<path d="M130.5 297.499C151.3 302.299 161.5 310.833 164 314.499C167.833 337.166 173.2 377.5 164 357.5C154.8 337.5 86.8333 326.166 54 322.999C70.8333 312.499 109.7 292.699 130.5 297.499Z" fill="#292323"/>
<path d="M154.394 230.315C165.839 248.334 167.114 261.571 166.321 265.938C153.14 284.773 128.651 317.267 136.137 296.564C143.623 275.861 103.171 220.081 82.0085 194.778C101.368 199.116 142.949 212.296 154.394 230.315Z" fill="#292323"/>
<path d="M210.003 170.782C208.335 192.064 201.405 203.414 198.149 206.429C176.299 213.575 137.204 224.853 155.622 212.794C174.04 200.735 175.189 131.839 173.462 98.899C186.337 113.993 211.672 149.501 210.003 170.782Z" fill="#292323"/>
<path d="M290.773 148.78C277.105 165.177 264.887 170.429 260.487 171.006C238.529 164.2 200.113 150.791 222.112 151.605C244.112 152.418 284.892 96.8762 302.532 69.0037C304.308 88.7637 304.441 132.383 290.773 148.78Z" fill="#292323"/>
<path d="M358.003 207.027C322.796 215.072 300.97 209.61 294.457 205.873C271.892 174.196 233.952 116.756 262.719 140.413C291.487 164.069 403.32 131.156 455.64 111.743C437.764 140.152 393.21 198.982 358.003 207.027Z" fill="#292323"/>
<path d="M414.047 266.537C394.42 258.143 385.886 247.944 384.072 243.894C384.297 220.907 386.13 180.259 391.657 201.568C397.185 222.878 462.086 246.023 493.846 254.933C475.424 262.298 433.674 274.931 414.047 266.537Z" fill="#292323"/>
<path d="M403.745 339.486C392.469 321.36 391.319 308.111 392.153 303.752C405.51 285.042 430.304 252.78 422.624 273.411C414.943 294.043 454.869 350.201 475.793 375.702C456.475 371.182 415.02 357.612 403.745 339.486Z" fill="#292323"/>
<path d="M139.649 357.137C146.123 336.796 155.457 327.323 159.315 325.129C182.218 323.15 222.854 321.078 202.173 328.623C181.491 336.167 164.673 402.988 158.85 435.456C149.752 417.825 133.175 377.478 139.649 357.137Z" fill="#292323"/>
<path d="M109.301 302.23C127.548 313.309 140.808 314.317 145.158 313.436C163.723 299.878 195.716 274.738 175.169 282.64C154.622 290.543 98.0363 251.223 72.312 230.576C77.0392 249.844 91.0551 291.15 109.301 302.23Z" fill="#292323"/>
<path d="M135.975 218.804C141.194 239.502 149.931 249.528 153.648 251.954C176.387 255.329 216.821 259.881 196.639 251.086C176.458 242.292 163.755 174.568 159.927 141.805C149.769 158.846 130.757 198.105 135.975 218.804Z" fill="#292323"/>
<path d="M202.188 150.517C193.931 170.202 194.897 183.465 196.413 187.637C212.569 203.991 242.167 231.911 231.311 212.759C220.454 193.608 250.965 131.826 267.578 103.329C249.222 110.856 210.445 130.831 202.188 150.517Z" fill="#292323"/>
<path d="M307.735 127.501C289.615 138.786 282.733 150.165 281.557 154.444C285.279 177.129 293.28 217.024 295.498 195.122C297.717 173.219 358.337 140.461 388.37 126.82C369.042 122.345 325.855 116.216 307.735 127.501Z" fill="#292323"/>
<path d="M394.259 179.719C373.007 177.71 360.635 182.589 357.106 185.279C346.315 205.578 328.495 242.157 343.536 226.082C358.578 210.007 426.648 220.701 458.803 228.057C446.143 212.782 415.511 181.728 394.259 179.719Z" fill="#292323"/>
<path d="M435.748 265.621C419.742 251.496 406.868 248.165 402.431 248.265C381.765 258.335 345.839 277.437 367.458 273.283C389.077 269.13 437.838 317.815 459.517 342.676C458.263 322.876 451.754 279.745 435.748 265.621Z" fill="#292323"/>
<path d="M418.813 359.586C413.789 338.839 405.147 328.731 401.453 326.271C378.747 322.682 338.358 317.75 358.456 326.734C378.553 335.718 390.618 403.558 394.138 436.356C404.457 419.41 423.837 380.333 418.813 359.586Z" fill="#292323"/>
<path d="M155.641 354.651C168.166 337.365 170.248 324.23 169.723 319.824C157.719 300.218 135.261 266.288 141.468 287.41C147.675 308.531 103.888 361.735 81.2189 385.696C100.808 382.55 143.116 371.937 155.641 354.651Z" fill="#292323"/>
</svg>
