<svg width="552" height="552" viewBox="0 0 552 552" fill="none" xmlns="http://www.w3.org/2000/svg">
<path d="M83.5501 337.222C94.8068 410.722 110.825 430.897 140.55 467.722C187.825 539.897 362.965 573.452 429.675 452.547C538.55 255.222 404.775 269.222 289.05 269.222C193.006 269.222 156.883 237.222 140.55 269.222C102.55 241.222 75.0501 281.722 83.5501 337.222Z" fill="#292323"/>
<path d="M99.8553 244.944C91.0619 291.248 96.1914 310.542 99.8553 314.401C146.821 383.858 373.153 443.668 436.106 331.765C486.469 242.243 429.444 155.55 394.637 123.394C396.635 125.966 402.214 135.829 399.275 152.977C397.29 164.554 393.446 170.342 385.785 176.773C387.117 164.982 391.921 136.256 382.787 116.963C371.226 92.5444 358.971 83.7347 346.314 77.7322C352.309 96.3827 354.538 105.386 352.809 116.963C351.079 128.539 340.677 148.69 332.683 152.977C336.5 138.5 337.5 116.963 330.5 97.5C319.196 66.0711 299.041 51.3643 285.718 46.8624C286.717 49.6493 291.673 71.199 290 89.9515C287.361 119.535 276.5 129.5 272.5 134.5C276.5 125 278.5 109.5 276.5 91.5C273.034 60.3077 242.391 39.145 232.898 34C234.397 40.6456 235.004 71.0615 228.901 97.669C223 123.394 211 137 198 152.977C201.5 143.477 200 129 194 112C188.863 97.445 183.127 94.6677 178.797 89.9515C178.963 97.0258 176.598 117.477 165.806 142.687C152.316 174.2 147.32 199.282 147.32 185.777V142.687C135.162 157.479 108.649 198.639 99.8553 244.944Z" fill="#292323"/>
</svg>
