<svg width="552" height="552" viewBox="0 0 552 552" fill="none" xmlns="http://www.w3.org/2000/svg">
<path d="M275.5 51L315.793 99.9635L373.341 73.3315L388.399 134.929L451.803 135.903L438.644 197.934L495.346 226.322L456.576 276.5L495.346 326.678L438.644 355.066L451.803 417.097L388.399 418.071L373.341 479.668L315.793 453.037L275.5 502L235.207 453.037L177.659 479.668L162.601 418.071L99.197 417.097L112.356 355.066L55.6538 326.678L94.4235 276.5L55.6538 226.322L112.356 197.934L99.197 135.903L162.601 134.929L177.659 73.3315L235.207 99.9635L275.5 51Z" fill="#292323"/>
</svg>
