<svg width="552" height="552" viewBox="0 0 552 552" fill="none" xmlns="http://www.w3.org/2000/svg">
<path d="M73.0056 341.5C22.0895 390.559 88.6944 435.5 128 435.5C128 470.5 206.505 487 249.005 470.5C263.5 496.5 297.512 514.842 353.505 487C443.495 492.067 430.171 431.612 452.152 419.5C483.005 402.5 515.001 363.595 483.005 330.5C483.005 289.481 481.454 251.1 452.152 224.204C464 184 433.493 143.5 375 143.5C336.004 109.713 312.806 133.493 282 124.5C189.5 97.5 162.832 143.668 146.5 173.5C124.019 158.056 73.5009 193.617 79.5002 236.5C36.5052 263.07 91.5743 323.609 73.0056 341.5Z" fill="#292323"/>
<path d="M149 129.5C169 138.7 177.167 164.833 179.5 175.5L134 212.5C137.167 202.333 134.5 175.2 130.5 156C126.5 136.8 100.167 130.166 81 129.499C93.5 124.166 120.5 116.39 149 129.5Z" fill="#292323"/>
<path d="M312.95 93.084C292.405 100.992 282.591 126.552 279.583 137.048L322.635 176.871C320.122 166.523 324.511 139.614 329.725 120.708C334.94 101.802 361.642 96.8584 380.812 97.4135C368.677 91.2951 342.227 81.8151 312.95 93.084Z" fill="#292323"/>
<path d="M501.256 247.819C484.785 233.213 457.575 236.254 446.871 238.411L431.312 294.955C439.345 287.964 465.257 279.485 484.443 275.419C503.629 271.354 520.3 292.79 528.624 310.068C528.476 296.479 524.728 268.632 501.256 247.819Z" fill="#292323"/>
<path d="M48.9597 321.654C65.4312 336.26 92.6412 333.218 103.345 331.061L118.904 274.518C110.871 281.508 84.9592 289.988 65.7729 294.053C46.5867 298.119 29.9159 276.682 21.5916 259.405C21.7402 272.994 25.488 300.841 48.9597 321.654Z" fill="#292323"/>
<path d="M172.927 494.838C193.756 487.709 204.524 462.536 207.925 452.16L166.402 410.746C168.524 421.181 163.125 447.906 157.203 466.602C151.281 485.299 124.412 489.234 105.276 487.958C117.173 494.529 143.247 504.997 172.927 494.838Z" fill="#292323"/>
<path d="M456.35 440.407C434.681 436.519 420.219 413.271 415.284 403.531L450.044 356.298C449.53 366.934 458.919 392.53 467.609 410.112C476.299 427.695 503.454 427.508 522.175 423.344C511.413 431.643 487.228 445.946 456.35 440.407Z" fill="#292323"/>
</svg>
