<svg width="565" height="642" viewBox="0 0 565 642" fill="none" xmlns="http://www.w3.org/2000/svg">
<path d="M76.5607 230.39C90.0893 111.07 191.889 51.4461 284.681 55.1637C426.785 60.8569 479.748 162.703 486.089 230.39C491.515 288.31 549.335 347.605 509.96 404.35C445.434 497.34 250.781 485.933 176.105 445.5C100.104 404.35 67.2367 312.626 76.5607 230.39Z" fill="#292323"/>
<path d="M516.604 454C544.864 376.957 509.378 294.165 480.861 255.49C465.768 233.785 407.389 369.508 299.975 405.039C192.561 440.57 194.624 533.62 266.105 560.5C337.585 587.379 488.361 531 516.604 454Z" fill="#292323"/>
</svg>
