<svg width="565" height="642" viewBox="0 0 565 642" fill="none" xmlns="http://www.w3.org/2000/svg">
<path d="M75.1046 204.164C68.0815 173.882 96.3952 176.78 136.818 138.781C177.241 100.781 224.174 79.9111 305.871 81.1637C387.569 82.4162 441.636 136.425 453.508 147.281C489.684 194.781 464.25 187.796 491.172 204.164C524.824 224.625 533.764 255.306 507.428 285.997C481.091 316.689 502.452 301.332 536.105 331C569.757 360.668 525.313 387.872 515.071 413.448C504.829 439.024 542.605 425.21 542.605 477C542.605 496.5 517.524 516 463.605 530C400.701 546.333 287.105 561.5 136.818 530C115.044 525.436 72.0334 506.5 53.1046 490C34.1758 473.5 28.5265 423.122 65.1046 395.5C101.683 367.878 80.6593 356.576 60.1758 331C39.6922 305.424 49.0243 278.402 85.6024 253.849C122.181 229.296 83.8835 242.017 75.1046 204.164Z" fill="#292323"/>
<ellipse cx="294.104" cy="463.5" rx="250.5" ry="123.5" fill="#292323"/>
</svg>
