<svg width="565" height="642" viewBox="0 0 565 642" fill="none" xmlns="http://www.w3.org/2000/svg">
<path d="M478.705 297.531C475.658 227.951 460.287 65.2132 283.811 60C89.3284 60 96.3665 237.548 86.0336 297.531C76.8734 350.706 52.3877 342.212 91.1042 443C113.865 502.251 194.607 457.113 283.811 457.076C368.585 457.041 451.268 481.146 478.705 423.001C506.141 364.856 481.751 367.111 478.705 297.531Z" fill="#292323"/>
<path d="M51.6137 409.475C47.5808 373.519 71.5914 347.202 84.1008 338.538L470.679 317C475.533 317.542 491.514 339.635 503.633 382.4C526.038 461.459 495.792 473.913 503.633 488.534C509.907 500.23 540.228 493.407 554.604 488.534C551.617 498.1 537.241 519.508 503.633 528.605C470.026 537.702 427.643 511.096 410.653 496.656C407.852 499.725 406.396 511.277 422.976 532.937C439.555 554.597 429.884 586.004 422.976 599C423.722 591.96 416.366 574.741 380.966 562.178C346.686 550.013 334.18 526.839 326.811 507.847C326.091 509.795 322.862 514.978 321.593 538.893C319.801 572.683 271.556 584.018 247.657 585.462C255.685 576.798 269.726 553.297 261.66 528.605C253.594 503.912 244.856 497.017 241.496 496.656C232.534 503.515 215.506 524.814 219.091 555.138C222.675 585.462 180.629 591.238 159.157 590.336C163.825 588.711 173.161 581.564 173.161 565.968C173.161 546.474 156.357 557.304 133.952 532.937C121.788 519.707 122.694 502.57 126.868 489.311C118.51 500.316 101.863 512.433 71.7782 517.233C25.624 524.598 11.0982 496.476 9.60449 481.494C15.019 484.382 29.881 488.426 46.0125 481.494C66.1769 472.83 56.6548 454.419 51.6137 409.475Z" fill="#292323"/>
</svg>
