<svg width="565" height="642" viewBox="0 0 565 642" fill="none" xmlns="http://www.w3.org/2000/svg">
<path d="M288.193 88.3271H278.016C176.72 88.3271 94.6045 150.926 94.6045 228.145V326.509C94.6045 403.728 176.721 466.327 278.016 466.327H288.193C389.489 466.327 471.604 403.729 471.604 326.509V228.145C471.604 150.926 389.488 88.3271 288.193 88.3271Z" fill="#292323"/>
<path d="M127.105 76.8271C177.052 33.1223 365.105 -4.17301 405.105 124.827C443.122 139.313 301.105 302.098 301.105 402.894C301.105 510.327 208.157 584.17 91.105 549.827C25.7627 530.656 16.6149 454.692 33.6047 402.894C51.1122 349.518 63.6034 357.854 41.105 259.827C31.9245 219.827 79.1639 175.373 104.105 146.327C91.105 104.827 115.105 87.3274 127.105 76.8271Z" fill="#292323"/>
</svg>
