<svg width="552" height="552" viewBox="0 0 552 552" fill="none" xmlns="http://www.w3.org/2000/svg">
<path d="M41.5974 296.432C35.8695 338.518 72.415 354.516 104.873 356.32C97.2357 375.158 114.455 418.474 152.132 426.17C189.808 433.866 218.32 399.716 227.867 381.678C230.412 397.912 247.087 432.663 293.419 441.802C339.751 450.941 353.166 380.169 355.5 356.32C384.564 377.363 424.5 405.5 470.982 381.678C497.5 368.088 484.983 323.358 470.982 310.732C487.105 300.912 517.696 273.215 511.077 240.989C504.458 208.763 458.678 202.71 436.615 203.712C451.889 190.685 476.582 158.138 453.162 132.165C429.741 106.191 393.338 121.343 378.064 132.165C382.943 115.33 379.925 81.9878 332.241 69.035C304.5 61.4995 264.143 88.8759 260.325 105.109C249.505 88.0742 218.726 60.6155 185.632 72.6403C152.538 84.665 147.026 117.989 152.329 138.832C139.176 134.824 104.933 132.17 84.0585 162.472C63.1837 192.774 90.2349 227.762 104.873 240.989C87.2649 242.993 46.1796 262.763 41.5974 296.432Z" fill="#292323"/>
</svg>
