<svg width="565" height="642" viewBox="0 0 565 642" fill="none" xmlns="http://www.w3.org/2000/svg">
<path d="M287.193 100H277.016C175.72 100 93.6045 194.064 93.6045 310.097C93.6045 426.131 175.721 439.5 277.016 439.5H287.193C388.489 439.5 470.605 426.131 470.605 310.097C470.605 194.064 388.488 100 287.193 100Z" fill="#292323"/>
<path d="M116.554 74.4314C182.954 68.0314 210.554 134.431 216.054 168.431C226.388 189.931 240.854 273.431 216.054 435.431C185.054 637.931 -7.94563 549.931 12.0544 538.931C32.0544 527.931 68.5543 454.431 31.0543 333.431C-6.44571 212.431 33.5543 82.4314 116.554 74.4314Z" fill="#292323"/>
<path d="M448.798 74.4314C382.398 68.0314 354.798 134.431 349.298 168.431C338.965 189.931 324.498 273.431 349.298 435.431C380.298 637.931 573.298 549.931 553.298 538.931C533.298 527.931 496.798 454.431 534.298 333.431C571.798 212.431 531.798 82.4314 448.798 74.4314Z" fill="#292323"/>
</svg>
