<svg width="565" height="642" viewBox="0 0 565 642" fill="none" xmlns="http://www.w3.org/2000/svg">
<path d="M78.1786 230.747C91.7187 107.782 193.605 46.3376 286.477 50.1687C428.702 56.0358 481.71 160.993 488.057 230.747C493.487 290.436 551.357 351.542 511.948 410.02C488.446 444.894 454.472 414.441 384.5 418C382 463 196 464 188 412C114.235 404.254 80.0054 436.808 69.5917 428.926C-0.461102 375.903 68.8467 315.494 78.1786 230.747Z" fill="#292323"/>
<path d="M102.767 500.026C70.3067 478.996 32.8528 426.913 39.3448 372.146C46.3362 334.905 204.142 400.131 198.149 433.868C193.355 460.857 220.455 493.308 234.604 506.16C230.609 505.868 218.924 503.006 204.142 493.892C189.36 484.779 172.015 471.255 169.185 466.728C168.852 470.233 171.582 478.382 177.175 489.949C182.768 501.516 196.651 514.339 204.142 517.99C192.323 515.361 174.129 509.804 156.201 500.026C137.724 489.949 128.402 467.312 126.737 457.527C126.071 461.324 126.058 476.919 130.732 488.197C138.723 507.475 144.715 512.732 160.196 525C151.873 521.495 128.735 516.851 102.767 500.026Z" fill="#292323"/>
<path d="M466.604 494.936C499.104 473.83 525.605 432.497 525.604 371.816C518.604 334.441 365.104 394.681 371.104 428.539C375.904 455.626 348.771 488.194 334.604 501.092C338.604 500.799 350.304 497.926 365.104 488.78C379.904 479.634 397.271 466.062 400.104 461.518C400.438 465.036 397.704 473.214 392.104 484.823C386.504 496.431 372.604 509.3 365.104 512.965C376.938 510.326 395.154 504.749 413.104 494.936C431.604 484.823 440.938 462.104 442.604 452.284C443.271 456.095 443.284 471.746 438.604 483.064C430.604 502.412 424.604 507.688 409.104 520C417.438 516.482 440.604 511.821 466.604 494.936Z" fill="#292323"/>
</svg>
