<svg width="601" height="642" viewBox="0 0 601 642" fill="none" xmlns="http://www.w3.org/2000/svg">
<path d="M93.6662 224.142C107.373 107.712 210.515 49.5322 304.531 53.1598C448.508 58.7151 502.17 158.094 508.594 224.142C514.091 280.659 572.674 338.518 532.779 393.889C467.403 484.627 111.76 430.753 84.9735 411.79C14.0576 361.584 84.2193 304.386 93.6662 224.142Z" fill="#292323"/>
<path d="M78.3661 400.459C100.156 385.705 114.013 361.273 117.357 354.006C145.994 291.779 80.6756 278.232 69.8737 305.292C67.4006 311.487 63.2209 320.944 50.5346 343.727C40.3856 361.953 30.8389 369.781 0.0045593 371.002C11.9304 386.948 41.5863 425.364 78.3661 400.459Z" fill="#292323"/>
<path d="M521.842 400.459C500.052 385.705 486.195 361.273 482.851 354.006C454.214 291.779 519.532 278.232 530.334 305.292C532.807 311.487 536.987 320.944 549.673 343.727C559.822 361.953 569.369 369.781 600.203 371.002C588.278 386.948 558.622 425.364 521.842 400.459Z" fill="#292323"/>
<path d="M528.665 359.462C503.333 352.336 482.475 333.524 477.009 327.683C430.202 277.67 484.317 219.23 503.104 241.5C507.406 246.599 517.949 279.23 537.175 296.847C552.556 310.94 564.085 315.356 593.73 306.786C587.444 325.681 571.423 371.491 528.665 359.462Z" fill="#292323"/>
<path d="M72.131 359.462C97.4631 352.336 118.32 333.524 123.787 327.683C170.594 277.669 110.892 219.73 92.1042 242C87.8028 247.099 82.8468 279.23 63.6204 296.846C48.2392 310.94 36.7105 315.356 7.06569 306.786C13.3514 325.68 29.3722 371.491 72.131 359.462Z" fill="#292323"/>
<path d="M424.352 455.326C412.584 431.789 412.473 403.701 413.118 395.727C418.637 327.45 482.217 347.639 478.378 376.521C477.499 383.134 476.509 393.426 476.408 419.503C476.327 440.364 480.815 451.865 507.097 468.035C488.889 476.094 444.216 495.056 424.352 455.326Z" fill="#292323"/>
<path d="M183.486 455.326C195.254 431.789 195.365 403.701 194.72 395.727C189.201 327.45 125.621 347.639 129.46 376.521C130.339 383.134 131.328 393.426 131.43 419.503C131.511 440.364 127.023 451.865 100.741 468.035C118.949 476.094 163.622 495.056 183.486 455.326Z" fill="#292323"/>
<path d="M302.682 489.421C316.524 461.735 316.654 428.696 315.896 419.317C309.404 339.004 214.088 356.027 218.605 390C219.639 397.779 234.986 410.327 235.105 441C235.2 465.539 236.267 485.349 205.351 504.37C226.769 513.849 279.317 536.154 302.682 489.421Z" fill="#292323"/>
<path d="M117.516 438.058C134.784 418.2 141.898 391.029 143.263 383.146C154.95 315.65 88.3438 319.34 84.8572 348.267C84.0589 354.89 82.4493 365.104 76.0425 390.381C70.9171 410.603 63.7021 420.621 34.2166 429.724C49.8392 442.07 88.3697 471.577 117.516 438.058Z" fill="#292323"/>
<path d="M482.692 438.058C465.425 418.2 458.31 391.029 456.945 383.146C445.258 315.65 511.864 319.34 515.351 348.267C516.149 354.89 517.759 365.104 524.165 390.381C529.291 410.603 536.506 420.621 565.991 429.724C550.369 442.07 511.838 471.577 482.692 438.058Z" fill="#292323"/>
<path d="M371.803 468.925C366.478 443.154 373.587 415.981 376.259 408.44C399.135 343.873 455.394 379.72 444.262 406.646C441.714 412.811 438.113 422.503 431.315 447.679C425.877 467.819 427.259 480.087 448.505 502.467C428.837 505.577 380.792 512.425 371.803 468.925Z" fill="#292323"/>
<path d="M236.035 468.925C241.36 443.154 234.251 415.981 231.579 408.44C208.703 343.873 152.444 379.72 163.576 406.646C166.124 412.811 169.725 422.503 176.522 447.679C181.961 467.819 180.579 480.087 159.333 502.467C179.001 505.577 227.046 512.425 236.035 468.925Z" fill="#292323"/>
<path d="M303.878 486.382C293.57 457.195 297.53 424.394 299.444 415.181C315.829 336.29 387.101 369.113 378.413 402.266C376.424 409.856 382.329 417.577 378.413 448C375.281 472.338 370.286 490.563 398.609 513.265C376.182 520.02 321.278 535.648 303.878 486.382Z" fill="#292323"/>
</svg>
