<svg width="565" height="642" viewBox="0 0 565 642" fill="none" xmlns="http://www.w3.org/2000/svg">
<path d="M287.193 86.9316H277.016C175.72 86.9316 93.6045 180.995 93.6045 297.029C93.6045 413.062 175.721 426.432 277.016 426.432H287.193C388.489 426.432 470.605 413.063 470.605 297.029C470.605 180.995 388.488 86.9316 287.193 86.9316Z" fill="#292323"/>
<path d="M131.105 74.4314C197.505 68.0314 225.105 134.431 230.605 168.431C240.938 189.931 255.405 273.431 230.605 435.431C199.605 637.931 6.60467 549.931 26.6047 538.931C46.6047 527.931 83.1046 454.431 45.6046 333.431C8.10459 212.431 48.1046 82.4314 131.105 74.4314Z" fill="#292323"/>
</svg>
