<svg width="594" height="642" viewBox="0 0 594 642" fill="none" xmlns="http://www.w3.org/2000/svg">
<path d="M87.1786 224.142C100.719 107.712 202.605 49.5322 295.477 53.1598C437.702 58.7151 490.71 158.094 497.057 224.142C502.487 280.659 560.357 338.518 520.948 393.889C456.367 484.627 105.052 430.753 78.5917 411.79C8.5389 361.584 77.8467 304.386 87.1786 224.142Z" fill="#292323"/>
<path d="M299.125 418.763C315.46 387.77 292.139 374.847 288.727 372.336C261.376 359.27 202.76 366.215 190.243 378.16C186.548 381.687 172.198 433.279 178.618 447.167C183.285 457.261 203.155 466.155 212.319 471.955C201.866 470.613 185.749 470.039 190.391 493.195C196.305 522.697 212.764 506.831 201.549 528.9C198.159 535.572 190.308 547.15 197.986 552.798C209.624 556.423 217.307 556.707 230.534 553.745C258.523 547.476 276.124 537.981 267.751 516.253C265.477 510.35 255.815 510.294 264.482 505.388C286.693 492.817 289.809 459.657 275.013 458.139C267.216 457.339 282.789 449.757 299.125 418.763Z" fill="#292323"/>
<path d="M148.65 409.867C176.866 392.867 163.437 367.858 161.763 363.665C145.033 336.136 92.762 307.262 76.6864 310.114C71.9401 310.956 35.7104 346.892 34.5554 362.681C33.7159 374.157 46.1517 393.64 51.0892 404.09C42.9807 396.716 29.7748 386.636 22.7796 409.356C13.8675 438.302 35.0807 434.415 15.3387 446.768C9.37019 450.503 -2.63212 455.814 1.13513 465.249C9.16265 475.293 15.4531 480.108 27.9032 485.421C54.2486 496.663 73.4243 498.947 76.6294 475.24C77.5003 468.798 69.4485 463.004 78.9995 463.93C103.474 466.304 121.654 439.574 109.997 429.467C103.853 424.14 120.435 426.866 148.65 409.867Z" fill="#292323"/>
<path d="M97.567 362.983C89.0753 327.734 114.468 323.16 118.328 321.896C147.623 318.539 202.296 344.901 211.541 360.577C214.271 365.205 216.075 419.566 206.686 430.744C199.863 438.869 178.719 440.733 168.573 443.224C178.921 445.446 194.53 450.31 184.698 470.986C172.172 497.327 160.051 476.562 165.696 501.521C167.403 509.067 172.254 522.822 163.57 525.666C151.555 525.236 144.111 522.928 132.098 515.639C106.678 500.216 91.9811 485.185 105.063 467.135C108.618 462.231 117.908 465.423 110.724 457.8C92.3148 438.267 97.0206 405.379 111.58 408.893C119.253 410.744 106.059 398.232 97.567 362.983Z" fill="#292323"/>
<path d="M277.705 419.484C259.821 389.754 282.439 375.135 285.717 372.378C312.35 357.318 371.21 359.925 384.312 370.925C388.181 374.172 405.133 424.608 399.433 438.944C395.29 449.363 375.91 459.706 367.059 466.172C377.424 464.061 393.481 462.299 390.028 485.754C385.629 515.636 368.393 501.015 380.711 522.215C384.435 528.624 392.862 539.601 385.485 545.805C374.055 550.281 366.4 551.132 353.047 549.151C324.792 544.959 306.74 536.78 313.989 514.476C315.958 508.416 325.599 507.647 316.698 503.39C293.888 492.482 289.088 459.613 303.778 457.007C311.52 455.633 295.59 449.214 277.705 419.484Z" fill="#292323"/>
<path d="M444.072 399.247C415.32 384.471 427.479 358.238 428.946 353.887C444.262 324.851 494.745 291.553 510.812 293.105C515.556 293.563 553.124 326.713 554.996 342.487C556.357 353.951 544.927 374.55 540.514 385.456C548.212 377.382 560.838 366.171 568.819 388.432C578.986 416.794 557.78 414.624 577.918 425.423C584.006 428.688 596.148 433.043 592.849 442.833C585.354 453.585 579.34 458.939 567.244 465.298C541.646 478.752 522.743 482.616 518.474 459.053C517.314 452.651 525.029 446.168 515.604 447.881C491.453 452.27 472.2 426.894 483.29 415.782C489.135 409.925 472.824 414.023 444.072 399.247Z" fill="#292323"/>
<path d="M369.64 413.911C344.085 393.87 360.845 370.468 363.084 366.48C383.459 340.934 439.185 317.983 454.693 322.601C459.272 323.964 490.126 363.737 489.075 379.579C488.312 391.092 473.302 409.106 466.966 418.959C476.013 412.518 490.478 403.948 494.243 427.333C499.04 457.127 478.593 450.911 496.409 465.389C501.795 469.767 512.933 476.38 507.895 485.353C498.558 494.461 491.665 498.557 478.61 502.467C450.983 510.739 431.694 510.889 431.815 486.941C431.848 480.434 440.62 475.559 431.041 475.424C406.497 475.078 392.223 446.464 405.16 437.695C411.978 433.074 395.194 433.952 369.64 413.911Z" fill="#292323"/>
<path d="M308.64 429.911C283.085 409.87 299.845 386.468 302.084 382.48C322.459 356.934 378.185 333.983 393.693 338.601C398.272 339.964 429.126 379.737 428.075 395.579C427.312 407.092 412.302 425.106 405.966 434.959C415.013 428.518 429.478 419.948 433.243 443.333C438.04 473.127 417.593 466.911 435.409 481.389C440.795 485.767 451.933 492.38 446.895 501.353C437.558 510.461 430.665 514.557 417.61 518.467C389.983 526.739 370.694 526.889 370.815 502.941C370.848 496.434 379.62 491.559 370.041 491.424C345.497 491.078 331.223 462.464 344.16 453.695C350.978 449.074 334.194 449.952 308.64 429.911Z" fill="#292323"/>
<path d="M198.64 437.911C173.085 417.87 189.845 394.468 192.084 390.48C212.459 364.934 268.185 341.983 283.693 346.601C288.272 347.964 319.126 387.737 318.075 403.579C317.312 415.092 302.302 433.106 295.966 442.959C305.013 436.518 319.478 427.948 323.243 451.333C328.04 481.127 307.593 474.911 325.409 489.389C330.795 493.767 341.933 500.38 336.895 509.353C327.558 518.461 320.665 522.557 307.61 526.467C279.983 534.739 260.694 534.889 260.815 510.941C260.848 504.434 269.62 499.559 260.041 499.424C235.497 499.078 221.223 470.464 234.16 461.695C240.978 457.074 224.194 457.952 198.64 437.911Z" fill="#292323"/>
<path d="M81.6397 413.911C56.0854 393.87 72.8447 370.468 75.0836 366.48C95.4593 340.934 151.185 317.983 166.693 322.601C171.272 323.964 202.126 363.737 201.075 379.579C200.312 391.092 185.302 409.106 178.966 418.959C188.013 412.518 202.478 403.948 206.243 427.333C211.04 457.127 190.593 450.911 208.409 465.389C213.795 469.767 224.933 476.38 219.895 485.353C210.558 494.461 203.665 498.557 190.61 502.467C162.983 510.739 143.694 510.889 143.815 486.941C143.848 480.434 152.62 475.559 143.041 475.424C118.497 475.078 104.223 446.464 117.16 437.695C123.978 433.074 107.194 433.952 81.6397 413.911Z" fill="#292323"/>
</svg>
