<svg width="565" height="642" viewBox="0 0 565 642" fill="none" xmlns="http://www.w3.org/2000/svg">
<path d="M282.552 50.0003C345.552 25.5002 341.052 70.5003 367.552 90.5003C375.886 85.5003 409.699 82.5351 422.552 90.5003C458.052 112.5 432.553 129.787 466.053 153.5C510.553 185 485.552 200.62 483.052 227.62C480.552 254.62 502.847 260.52 517.052 276.62C539.552 302.12 533.552 346.62 517.052 362.12C500.552 377.62 529.552 375.12 527.052 432.12C524.552 489.12 485.052 473.62 466.052 487.62C447.052 501.62 465.552 520.62 422.552 535.62C379.552 550.62 390.052 527.12 330.552 526.12C293.552 525.498 291.052 561.12 238.552 547.62C211.46 540.653 209.65 502.971 175.104 526.12C126.604 558.62 71.1045 518 75.1045 481C79.1045 444 41.7825 458.68 35.5523 432.12C21.83 373.62 60.8504 363.882 54.0522 344.62C45.0525 319.12 34.5525 307.12 46.0522 267.12C58.8884 222.471 94.0521 231.12 81.0521 199.12C68.0521 167.12 89.5524 147.5 111.052 133.5C132.552 119.5 151.052 124 146.052 106C141.052 88.0004 157.913 50.0003 196.552 50.0003C234.052 50.0003 238.552 67.1115 282.552 50.0003Z" fill="#292323"/>
</svg>
