<svg width="552" height="552" viewBox="0 0 552 552" fill="none" xmlns="http://www.w3.org/2000/svg">
<path d="M476.391 267.699C461.968 246.427 485.534 235.11 476.391 191.5C467.248 147.89 429.49 168.298 411 147.89C392.51 127.482 392.228 109.34 363.249 100.889C312.456 86.0782 280.248 125.39 235.748 100.89C191.248 76.3899 140.676 113.699 132.749 147.89C127.188 171.876 123.175 191.199 89.1756 216.699C49.5776 246.397 51.6755 308.199 79.6755 342.199C107.676 376.199 99.1756 391.199 98.1756 423.199C97.1756 455.199 127.676 488.199 173.176 476.699C218.676 465.199 219.696 503.078 269.748 516.39C323.676 530.732 310.749 494.89 363.249 493.89C415.749 492.89 426.748 462.89 436.248 433.39C445.748 403.89 440.248 394.39 467.248 364.39C494.248 334.39 503.176 307.199 476.391 267.699Z" fill="#292323"/>
</svg>
