<svg width="552" height="552" viewBox="0 0 552 552" fill="none" xmlns="http://www.w3.org/2000/svg">
<path d="M431 317.5V309.5C431 223.62 361.38 154 275.5 154C189.62 154 120 223.62 120 309.5V317.5C120 403.38 189.62 473 275.5 473C361.38 473 431 403.38 431 317.5Z" fill="#292323"/>
<path d="M114.228 293.384C99.028 345.784 120.561 383.551 133.228 395.884C173.728 486.385 366.728 463.384 426.228 395.884C473.828 341.885 406.395 188.718 366.728 118.884L332 161.384C315.5 147.218 285.5 108 277 108C268.347 108 247.395 141.218 229.228 161.384C218.728 143.718 196.128 110.484 189.728 118.884C181.728 129.384 133.228 227.884 114.228 293.384Z" fill="#292323"/>
</svg>
