<svg width="552" height="552" viewBox="0 0 552 552" fill="none" xmlns="http://www.w3.org/2000/svg">
<path d="M443.398 284.58C430.845 266.067 451.355 256.217 443.398 218.262C435.441 180.306 402.578 198.068 386.486 180.306C370.393 162.544 370.148 146.755 344.926 139.4C300.719 126.509 272.688 160.723 233.958 139.4C195.227 118.077 151.212 150.548 144.313 180.306C139.473 201.182 135.981 217.999 106.389 240.193C71.9258 266.041 73.7517 319.829 98.1212 349.42C122.491 379.012 115.093 392.067 114.223 419.918C113.352 447.769 139.898 476.49 179.498 466.481C219.098 456.472 219.986 489.44 263.549 501.026C310.484 513.508 299.233 482.313 344.926 481.443C390.618 480.573 400.192 454.463 408.46 428.788C416.729 403.113 411.942 394.845 435.441 368.734C458.94 342.624 466.71 318.958 443.398 284.58Z" fill="#292323"/>
<path d="M94.5834 244.369C110.709 229.571 132.136 231.919 140.834 234.943L289.336 416.218C290.804 418.784 285.715 434.477 269.149 455.656C238.523 494.811 221.642 484.469 217.299 493.518C213.824 500.757 227.979 513.144 235.492 518.433C229.752 520.385 214.162 520.995 197.723 507.813C181.283 494.631 179.153 464.423 180.143 450.967C177.645 450.693 171.481 454.102 166.817 469.933C162.153 485.764 143.358 492.24 134.543 493.5C138.249 491.354 144.036 481.615 137.538 459.83C131.246 438.734 138.103 424.354 144.751 413.977C143.542 414.32 139.857 414.591 127.721 422.502C110.574 433.68 87.8163 414.141 78.5808 402.975C85.679 403.809 102.172 402.288 111.356 389.537C120.54 376.785 120.79 370.055 119.766 368.283C113.217 366.349 96.7338 365.624 83.199 378.194C69.6642 390.764 51.8349 372.272 44.612 361.455C47.0717 363.157 53.8957 365.17 61.5144 359.607C71.0379 352.653 59.7494 348.303 63.6568 328.659C65.7783 317.993 74.4741 312.323 82.4409 309.633C74.0814 309.473 62.2203 305.659 49.137 292.666C29.0655 272.733 37.6193 255.601 44.4052 249.526C44.9269 253.203 48.2563 261.91 57.4002 267.323C68.8301 274.088 74.4258 262.866 94.5834 244.369Z" fill="#292323"/>
<path d="M328.894 133.456C342.147 150.874 337.839 171.994 334.029 180.377L139.87 311.587C137.18 312.813 122.021 306.302 102.454 287.859C66.2808 253.764 78.1302 237.906 69.5192 232.749C62.6303 228.623 48.9945 241.58 43.0377 248.574C41.6211 242.679 42.4472 227.1 57.0845 211.941C71.7219 196.783 101.998 197.439 115.306 199.662C115.808 197.199 112.98 190.748 97.6451 184.649C82.3099 178.55 77.5885 159.238 77.1447 150.345C78.9411 154.232 88.1066 160.89 110.397 156.422C131.981 152.096 145.67 160.246 155.392 167.819C155.162 166.585 155.231 162.891 148.469 150.078C138.915 131.976 160.462 111.111 172.43 102.941C170.948 109.933 170.946 126.495 182.799 136.813C194.652 147.13 201.331 147.997 203.189 147.141C205.717 140.797 207.954 124.451 196.682 109.818C185.409 95.1847 205.462 79.1307 216.897 72.9328C214.976 75.2256 212.344 81.8356 217.184 89.9336C223.233 100.056 228.602 89.2151 247.804 94.9118C258.229 98.0047 263.076 107.185 265.022 115.365C265.95 107.056 270.838 95.5955 284.979 83.762C306.672 65.6079 322.946 75.7003 328.371 83.0158C324.662 83.1973 315.686 85.7122 309.455 94.3199C301.668 105.08 312.328 111.683 328.894 133.456Z" fill="#292323"/>
<path d="M452.865 363.529C435.53 376.89 414.383 372.714 405.977 368.955L273.56 175.618C272.317 172.936 278.733 157.736 297.054 138.055C330.923 101.67 346.855 113.42 351.959 104.777C356.041 97.863 342.999 84.3081 335.968 78.395C341.854 76.9417 357.439 77.6707 372.688 92.2134C387.937 106.756 387.47 137.035 385.33 150.357C387.796 150.844 394.229 147.976 400.232 132.603C406.236 117.23 425.517 112.389 434.408 111.889C430.532 113.71 423.932 122.917 428.538 145.179C432.999 166.736 424.934 180.475 417.421 190.244C418.655 190.006 422.349 190.052 435.119 183.21C453.161 173.544 474.16 194.961 482.405 206.878C475.404 205.439 458.842 205.541 448.598 217.457C438.355 229.374 437.529 236.059 438.397 237.912C444.757 240.4 461.117 242.535 475.679 231.172C490.242 219.808 506.42 239.76 512.689 251.157C510.384 249.25 503.758 246.659 495.691 251.549C485.606 257.661 496.48 262.963 490.903 282.2C487.875 292.645 478.725 297.549 470.557 299.546C478.872 300.421 490.363 305.238 502.284 319.305C520.573 340.885 510.582 357.221 503.301 362.691C503.096 358.983 500.525 350.023 491.879 343.847C481.071 336.126 474.534 346.828 452.865 363.529Z" fill="#292323"/>
<path d="M232.181 481.7C216.323 466.616 217.212 445.079 219.639 436.196L390.421 275.736C392.881 274.097 408.883 278.11 431.138 293.201C472.28 321.1 463.108 338.643 472.43 342.363C479.888 345.339 491.286 330.375 496.053 322.521C498.391 328.116 500.057 343.628 488.02 360.924C475.984 378.22 445.991 382.395 432.498 382.32C432.394 384.831 436.214 390.749 452.325 394.328C468.436 397.907 476.172 416.22 478.027 424.929C475.634 421.377 465.526 416.265 444.232 424.226C423.611 431.935 408.8 426.069 397.995 420.141C398.419 421.323 398.939 424.981 407.656 436.552C419.971 452.902 402.022 476.933 391.508 486.905C391.858 479.766 389.222 463.415 375.877 455.117C362.532 446.819 355.8 447.027 354.102 448.168C352.617 454.834 353.012 471.328 366.471 483.978C379.93 496.629 362.691 515.672 352.389 523.612C353.92 521.043 355.465 514.098 349.398 506.874C341.814 497.844 338.239 509.402 318.375 506.837C307.591 505.444 301.343 497.153 298.119 489.387C298.527 497.738 295.527 509.83 283.451 523.765C264.926 545.143 247.253 537.771 240.732 531.413C244.365 530.643 252.826 526.731 257.605 517.24C263.58 505.378 252.004 500.556 232.181 481.7Z" fill="#292323"/>
</svg>
