<svg width="66" height="66" viewBox="0 0 66 66" fill="none" xmlns="http://www.w3.org/2000/svg">
<path d="M33.2194 26.3066C33.0968 26.1226 32.9128 26 32.6676 26C32.4223 26 32.2383 26.1226 32.1157 26.3066C27.6394 35.1365 28.0073 34.462 28.0073 34.5846V57.8244C28.0073 58.9895 28.9884 59.9706 30.1535 59.9706H35.1816C36.3467 59.9706 37.3278 58.9895 37.3278 57.8244C37.3278 32.9903 37.3891 34.462 37.2051 34.2167L33.2194 26.3066ZM32.6676 27.9622L34.0166 30.5989C33.1581 30.9055 32.177 30.9055 31.3185 30.5989L32.6676 27.9622ZM30.7667 31.7026C31.993 32.1319 33.3421 32.1319 34.5684 31.7026L35.7335 33.9714H29.6016L30.7667 31.7026ZM29.2337 35.1978H32.0544V52.9189H29.2337V35.1978ZM36.1014 57.8244C36.1014 58.315 35.6722 58.7442 35.1816 58.7442H30.1535C29.6629 58.7442 29.2337 58.315 29.2337 57.8244V54.1453H36.1014V57.8244ZM36.1014 52.9189H33.2807V35.1978H36.1014V52.9189Z" fill="white"/>
<path d="M60.7962 11.3783C63.7154 11.3783 66 9.09366 66 6.17443C66 3.2552 63.7154 0.970581 60.7962 0.970581C58.3846 0.970581 56.4808 2.62058 55.8462 4.9052H38.2038V2.23981C38.2038 1.47827 37.6962 0.970581 36.9346 0.970581H29.1923C28.4308 0.970581 27.9231 1.47827 27.9231 2.23981V4.9052H10.1538C9.51923 2.62058 7.61538 0.970581 5.07692 0.970581C2.28462 0.970581 0 3.2552 0 6.17443C0 8.96673 2.28462 11.3783 5.07692 11.3783C7.48846 11.3783 9.51923 9.72827 10.0269 7.44366H21.0692C12.4385 11.2513 5.96538 19.2475 4.18846 28.8937H1.26923C0.507692 28.8937 0 29.4013 0 30.1629V37.9052C0 38.6667 0.507692 39.1744 1.26923 39.1744H9.13846C9.9 39.1744 10.4077 38.6667 10.4077 37.9052V30.1629C10.4077 29.4013 9.9 28.8937 9.13846 28.8937H6.98077C9.01154 18.359 17.3885 10.109 27.9231 7.95135V10.109C27.9231 10.8706 28.4308 11.3783 29.1923 11.3783H36.9346C37.6962 11.3783 38.2038 10.8706 38.2038 10.109V7.95135C48.7385 9.98212 56.9885 18.359 59.1461 28.8937H56.9885C56.2269 28.8937 55.7192 29.4013 55.7192 30.1629V37.9052C55.7192 38.6667 56.2269 39.1744 56.9885 39.1744H64.7308C65.4923 39.1744 66 38.6667 66 37.9052V30.1629C66 29.4013 65.4923 28.8937 64.7308 28.8937H61.5577C59.7808 19.2475 53.4346 11.3783 44.6769 7.44366H55.8462C56.4808 9.60135 58.3846 11.3783 60.7962 11.3783ZM60.9231 3.50904C62.3192 3.50904 63.4615 4.65135 63.4615 6.17443C63.4615 7.57058 62.3192 8.83981 60.7962 8.83981C59.4 8.83981 58.1308 7.6975 58.1308 6.17443C58.2577 4.65135 59.4 3.50904 60.9231 3.50904ZM5.20385 8.83981C3.68077 8.83981 2.53846 7.6975 2.53846 6.17443C2.53846 4.65135 3.68077 3.50904 5.20385 3.50904C6.6 3.50904 7.86923 4.65135 7.86923 6.17443C7.74231 7.57058 6.6 8.83981 5.20385 8.83981ZM7.74231 31.4321V36.636H2.53846V31.4321H7.74231ZM35.6654 8.83981H30.4615V3.50904H35.6654V8.83981ZM63.4615 31.4321V36.636H58.1308V31.4321H63.4615Z" fill="white"/>
</svg>
