<svg width="71" height="58" viewBox="0 0 71 58" fill="none" xmlns="http://www.w3.org/2000/svg">
<path fill-rule="evenodd" clip-rule="evenodd" d="M11.3321 0.000125993C10.9664 0.00443018 10.6179 0.117451 10.3629 0.314485C10.1078 0.511519 9.96703 0.776637 9.97128 1.05154V44.6874C9.97132 44.963 10.117 45.2272 10.3762 45.4221C10.6355 45.617 10.9871 45.7266 11.3537 45.7266H69.3938C69.577 45.7286 69.7589 45.7031 69.9288 45.6518C70.0988 45.6004 70.2536 45.5242 70.384 45.4275C70.5145 45.3308 70.6181 45.2156 70.6888 45.0885C70.7595 44.9614 70.7959 44.8251 70.7959 44.6874C70.7959 44.5496 70.7595 44.4133 70.6888 44.2862C70.6181 44.1592 70.5145 44.044 70.384 43.9473C70.2536 43.8506 70.0988 43.7743 69.9288 43.723C69.7589 43.6716 69.577 43.6462 69.3938 43.6481H12.7361V1.05154C12.7383 0.912684 12.7034 0.774904 12.6335 0.646351C12.5636 0.517799 12.4602 0.401068 12.3293 0.303068C12.1985 0.205068 12.0428 0.127748 11.8715 0.0757346C11.7002 0.0237215 11.5168 -0.0020391 11.3321 0.000125993Z" fill="white"/>
<path fill-rule="evenodd" clip-rule="evenodd" d="M49.6057 5.15395C49.3373 5.16143 49.0823 5.27261 48.8947 5.46402L17.8972 36.3702C17.7982 36.4653 17.7194 36.5789 17.665 36.7047C17.6105 36.8305 17.5814 36.9661 17.5801 37.1031C17.5788 37.2401 17.6049 37.3759 17.6569 37.5028C17.7089 37.6296 17.7859 37.7451 17.8831 37.842C17.9803 37.9389 18.0956 38.0154 18.2229 38.0673C18.3501 38.1191 18.4868 38.1451 18.6243 38.1438C18.7617 38.1425 18.8974 38.114 19.0237 38.0597C19.1499 38.0055 19.2641 37.9267 19.3594 37.8279L27.3088 29.9031H41.3534C41.6276 29.903 41.8906 29.7944 42.0845 29.6011C42.2784 29.4077 42.3874 29.1456 42.3874 28.8722V14.8668L50.357 6.92175C50.5056 6.77682 50.6069 6.59044 50.6478 6.38718C50.6887 6.18392 50.6673 5.97327 50.5862 5.78239C50.5051 5.59152 50.3683 5.42939 50.1934 5.31729C50.0185 5.2052 49.8135 5.14827 49.6057 5.15395Z" fill="white"/>
<path fill-rule="evenodd" clip-rule="evenodd" d="M40.3192 16.9286V27.8414H29.3767L40.3192 16.9286Z" fill="#445A80"/>
<path fill-rule="evenodd" clip-rule="evenodd" d="M0.974787 2.06193C0.786884 2.0727 0.605493 2.13441 0.450163 2.24037C0.294832 2.34633 0.171453 2.49249 0.0933205 2.66319C0.015188 2.8339 -0.0147346 3.02268 0.00677795 3.20908C0.0282905 3.39549 0.100423 3.57245 0.2154 3.721L3.3095 7.83243C3.4058 7.96075 3.53078 8.06496 3.67452 8.13671C3.81826 8.20847 3.9768 8.24569 4.13755 8.24569C4.29831 8.24569 4.45685 8.20847 4.60059 8.13671C4.74433 8.06496 4.86931 7.96075 4.96561 7.83243L8.05971 3.721C8.14115 3.61259 8.20038 3.48931 8.234 3.35808C8.26763 3.22685 8.275 3.09021 8.25569 2.95615C8.23638 2.82208 8.19077 2.69336 8.12146 2.57687C8.05215 2.46038 7.96051 2.35855 7.85176 2.27737C7.74301 2.19619 7.61928 2.13722 7.48764 2.10371C7.35601 2.0702 7.21904 2.0628 7.08456 2.08207C6.95009 2.10133 6.82074 2.14685 6.70389 2.21596C6.58705 2.28507 6.48501 2.37632 6.4036 2.48475L4.13755 5.49685L1.87151 2.48475C1.76956 2.345 1.63402 2.23322 1.47733 2.15933C1.32064 2.08544 1.14783 2.05185 0.974787 2.06193Z" fill="white"/>
<path fill-rule="evenodd" clip-rule="evenodd" d="M4.1213 6.18128C3.98551 6.18339 3.85146 6.21208 3.72681 6.26584C3.60217 6.3196 3.48937 6.3974 3.39484 6.49462C3.30032 6.59184 3.22594 6.70649 3.17593 6.83237C3.12592 6.95825 3.10128 7.09289 3.1034 7.22826V11.3236C3.10146 11.4602 3.12677 11.596 3.17787 11.7227C3.22897 11.8495 3.30483 11.9647 3.40104 12.062C3.49725 12.1593 3.6119 12.2366 3.73832 12.2893C3.86475 12.342 4.00042 12.3693 4.13746 12.3693C4.2745 12.3693 4.41017 12.342 4.53659 12.2893C4.66301 12.2366 4.77766 12.1593 4.87387 12.062C4.97009 11.9647 5.04595 11.8495 5.09704 11.7227C5.14814 11.596 5.17345 11.4602 5.17152 11.3236V7.22826C5.17368 7.09018 5.14799 6.95307 5.09598 6.82507C5.04397 6.69707 4.96669 6.58069 4.86873 6.48304C4.77078 6.38539 4.65414 6.30838 4.52574 6.25653C4.39735 6.20468 4.25981 6.17912 4.1213 6.18128Z" fill="white"/>
<path fill-rule="evenodd" clip-rule="evenodd" d="M59.868 48.7094C59.662 48.7094 59.4607 48.7707 59.29 48.8855C59.1192 49.0003 58.9867 49.1633 58.9095 49.3536C58.8322 49.544 58.8138 49.753 58.8564 49.9539C58.8991 50.1548 59.001 50.3384 59.149 50.4812L66.3672 57.6732C66.4625 57.7723 66.5766 57.8514 66.7029 57.906C66.8292 57.9605 66.9652 57.9893 67.1029 57.9908C67.2405 57.9922 67.3771 57.9664 67.5046 57.9145C67.6321 57.8627 67.7479 57.7858 67.8452 57.6888C67.9426 57.5917 68.0195 57.4763 68.0715 57.3492C68.1235 57.2222 68.1495 57.0861 68.1481 56.9488C68.1466 56.8116 68.1177 56.6761 68.0629 56.5502C68.0082 56.4242 67.9288 56.3104 67.8294 56.2154L60.6112 49.0234C60.5148 48.9241 60.3993 48.8451 60.2716 48.7911C60.1439 48.7372 60.0067 48.7093 59.868 48.7094Z" fill="white"/>
<path fill-rule="evenodd" clip-rule="evenodd" d="M67.0784 48.7094C66.8095 48.7179 66.5545 48.8306 66.3675 49.0235L59.1493 56.2155C59.0499 56.3104 58.9705 56.4242 58.9158 56.5502C58.861 56.6761 58.8321 56.8116 58.8306 56.9488C58.8292 57.0861 58.8552 57.2222 58.9072 57.3493C58.9592 57.4763 59.0361 57.5917 59.1335 57.6888C59.2308 57.7858 59.3466 57.8627 59.4741 57.9145C59.6016 57.9664 59.7382 57.9923 59.8758 57.9908C60.0135 57.9893 60.1495 57.9605 60.2758 57.906C60.4021 57.8514 60.5162 57.7723 60.6115 57.6732L67.8297 50.4812C67.9799 50.3365 68.0826 50.1501 68.1244 49.9461C68.1661 49.7421 68.145 49.5301 68.0636 49.3383C67.9823 49.1466 67.8447 48.984 67.6688 48.8717C67.493 48.7594 67.2871 48.7028 67.0784 48.7094Z" fill="white"/>
</svg>
