<svg width="90" height="65" viewBox="0 0 90 65" fill="none" xmlns="http://www.w3.org/2000/svg">
<g clip-path="url(#clip0_142_633)">
<path d="M90 47.1792H84.0117V7.45769C84.0117 3.35248 80.6509 0 76.4979 0H13.5493C9.39621 0 5.98826 3.35248 5.98826 7.45769V47.1792H0V56.9284H41.8924L44.8356 65L47.9522 56.9284H48.6284L56.5945 64.8026L63.8182 57.6621L63.076 56.9284H90L90 47.1792ZM8.80626 7.45769C8.80626 4.88837 10.95 2.78549 13.5493 2.78549H76.4979C79.0971 2.78549 81.1937 4.88837 81.1937 7.45769V47.1187C81.1937 47.1377 81.2592 47.1593 81.2833 47.1792H60.9952L64.0179 46.0388L34.0254 35.3535L38.3375 47.1792H8.80626V7.45769ZM2.818 54.1429V49.9647H39.3532L40.8767 54.1429H2.818ZM56.5945 60.8633L47.0567 51.4357L44.9113 56.9924L38.7089 39.9829L55.9168 46.1136L50.2953 48.2345L59.8331 57.6621L56.5945 60.8633ZM87.182 54.1429H60.2579L56.0309 49.9647H87.182L87.182 54.1429Z" fill="white"/>
<path d="M35.8019 33.774L39.1181 28.765L42.4357 33.774H45.5222L40.6611 26.4203L45.2343 19.4984H42.1516L39.1156 24.0727L36.0863 19.4984H32.9999L37.571 26.4146L32.696 33.774H35.8019ZM63.0528 31.5108H65.5185V27.8549H69.041V25.4176H65.5185V21.7616H63.0528V25.4176H59.3541V27.8549H63.0528V31.5108Z" fill="#4A4646"/>
<path d="M52.4854 10.7938H27.1125L21.9187 25.1838L20.3417 20.7376L17.6819 21.6615L21.8919 33.5381L29.0984 13.5793H52.4854V10.7938Z" fill="#4A4646"/>
</g>
<defs>
<clipPath id="clip0_142_633">
<rect width="90" height="65" fill="white"/>
</clipPath>
</defs>
</svg>
