<svg width="90" height="60" viewBox="0 0 90 60" fill="none" xmlns="http://www.w3.org/2000/svg">
<path d="M60.203 0C54.6459 0 49.4579 1.56833 45 4.24631C40.5421 1.56833 35.354 0 29.7969 0C13.3692 0 0 13.4603 0 30C0 46.5397 13.3692 60 29.7969 60C35.354 60 40.5421 58.4317 45 55.7537C49.4579 58.4317 54.6459 60 60.203 60C76.6308 60 90 46.5397 90 30C90 13.4603 76.6308 0 60.203 0ZM29.7969 56.5119C15.2746 56.5119 3.46448 44.6213 3.46448 30C3.46448 15.3787 15.2744 3.48809 29.7969 3.48809C34.1299 3.48809 38.2102 4.56519 41.8189 6.43897C34.883 11.9374 30.4053 20.4448 30.4053 30C30.4053 39.5552 34.883 48.0626 41.8189 53.561C38.2102 55.4348 34.1299 56.5119 29.7969 56.5119ZM33.8706 30C33.8706 21.0823 38.2772 13.1976 45 8.39044C51.7225 13.1979 56.1294 21.0823 56.1294 30C56.1294 38.9177 51.7228 46.8024 45 51.6096C38.2772 46.8024 33.8706 38.9177 33.8706 30ZM60.203 56.5119C55.8701 56.5119 51.7898 55.4348 48.1811 53.561C55.117 48.0626 59.5947 39.5552 59.5947 30C59.5947 20.4448 55.117 11.9374 48.1811 6.43897C51.7896 4.56546 55.8699 3.48809 60.203 3.48809C74.7254 3.48809 86.5355 15.3787 86.5355 30C86.5355 44.6213 74.7254 56.5119 60.203 56.5119Z" fill="white"/>
</svg>
