<svg width="425" height="204" viewBox="0 0 425 204" fill="none" xmlns="http://www.w3.org/2000/svg">
<path d="M374 131C380.548 146.852 385.5 165.5 385.5 201C374.5 201 347 212 293 183C238.156 153.547 224.107 123.5 211 104C198 131 174 155.339 138.5 177.5C103 199.661 54.1667 198.5 38 201C38 177.887 40.0394 155.001 48.8591 133.648C57.6788 112.294 70.6061 92.8923 86.9028 76.5492C103.199 60.2061 122.546 47.242 143.839 38.3972C165.132 29.5524 187.953 25 211 25C234.047 25 256.868 29.5524 278.161 38.3972C299.454 47.242 318.801 60.2061 335.097 76.5492C351.394 92.8923 365.18 109.647 374 131Z" fill="#292323"/>
<path d="M302.015 77.0035C290.443 48.3828 260.761 30.7334 214.979 37.4116C184.794 41.0916 166.682 61.7391 147.565 77.0034C128.447 92.2677 103.292 126.613 123.416 160.48C143.54 194.348 286.922 232.986 336.225 167.158C362.821 131.649 313.586 105.624 302.015 77.0035Z" fill="#292323"/>
</svg>
