<svg width="425" height="205" viewBox="0 0 425 205" fill="none" xmlns="http://www.w3.org/2000/svg">
<path d="M276 196.5C276 188.161 274.358 179.904 271.166 172.2C267.975 164.495 263.298 157.495 257.401 151.599C251.505 145.702 244.505 90.5248 236.8 87.3336C229.096 84.1425 220.839 82.5 212.5 82.5C204.161 82.5 195.904 84.1425 188.2 87.3337C180.495 90.5248 173.495 145.702 167.599 151.599C161.702 157.495 157.025 164.495 153.834 172.2C150.642 179.904 149 188.161 149 196.5L212.5 196.5H276Z" fill="#292323"/>
<path d="M374 132C380.548 147.852 385.5 166.5 385.5 202C374.5 202 347 213 293 184C238.156 154.547 224.107 124.5 211 105C198 132 174 156.339 138.5 178.5C103 200.661 54.1667 199.5 38 202C38 178.887 40.0394 156.001 48.8591 134.648C57.6788 113.294 70.6061 93.8923 86.9028 77.5492C103.199 61.2061 122.546 48.242 143.839 39.3972C165.132 30.5524 187.953 26 211 26C234.047 26 256.868 30.5524 278.161 39.3972C299.454 48.242 318.801 61.2061 335.097 77.5492C351.394 93.8923 365.18 110.647 374 132Z" fill="#292323"/>
</svg>
