<svg width="425" height="205" viewBox="0 0 425 205" fill="none" xmlns="http://www.w3.org/2000/svg">
<path d="M384.88 132.512C394.202 155.018 399 179.14 399 203.5H213.5H151.5L127.5 156.5L103.5 203.5L28 203.5C28 179.14 32.7981 155.018 42.1203 132.512C51.4426 110.006 65.1064 89.557 82.3317 72.3317C99.557 55.1064 120.006 41.4426 142.512 32.1204C165.018 22.7981 189.14 18 213.5 18C237.86 18 261.982 22.7981 284.488 32.1203C306.994 41.4426 327.443 55.1064 344.668 72.3317C361.894 89.557 375.557 110.006 384.88 132.512Z" fill="#292323"/>
</svg>
