<svg width="425" height="204" viewBox="0 0 425 204" fill="none" xmlns="http://www.w3.org/2000/svg">
<path d="M132.071 85.1965C134.741 64.1792 170.976 60.7502 189.463 62.593C207.951 64.4357 211.205 65.5647 233.576 73.3267L233.577 73.3269C255.949 81.089 303.72 106.35 292.828 132.744C284.115 153.859 260.674 145.055 250.043 138.014C252.467 149.065 254.902 172.89 245.249 179.782C235.597 186.673 223.359 173.71 218.446 166.368C215.752 172.442 205.514 184.922 186.122 186.24C166.73 187.557 170.689 161.379 175.092 148.125C166.61 148.078 148.32 144.688 143.015 131.51C137.711 118.332 154.397 110.315 163.403 107.954C152.69 108.656 130.029 101.27 132.071 85.1965Z" fill="#292323"/>
<path d="M375 131C381.548 146.852 386.5 165.5 386.5 201C375.5 201 348 212 294 183C239.156 153.547 225.107 123.5 212 104C199 131 175 155.339 139.5 177.5C104 199.661 55.1667 198.5 39 201C39 177.887 41.0394 155.001 49.8591 133.648C58.6788 112.294 71.6061 92.8923 87.9028 76.5492C104.199 60.2061 123.546 47.242 144.839 38.3972C166.132 29.5524 188.953 25 212 25C235.047 25 257.868 29.5524 279.161 38.3972C300.454 47.242 319.801 60.2061 336.097 76.5492C352.394 92.8923 366.18 109.647 375 131Z" fill="#292323"/>
</svg>
