<svg width="425" height="203" viewBox="0 0 425 203" fill="none" xmlns="http://www.w3.org/2000/svg">
<path d="M292.5 119.174L253.5 78L158.5 78L122.5 127.313L164 114.865L158.5 188.595L192 165.135L208.5 202L231 165.135L264 186.68L253.5 119.174L292.5 119.174Z" fill="#292323"/>
<path d="M374 130C380.548 145.852 385.5 164.5 385.5 200C374.5 200 347 211 293 182C238.156 152.547 224.107 122.5 211 103C198 130 174 154.339 138.5 176.5C103 198.661 54.6667 199 38.5 201.5C38.5 178.387 40.0394 154.001 48.8591 132.648C57.6788 111.294 70.6061 91.8923 86.9028 75.5492C103.199 59.2061 122.546 46.242 143.839 37.3972C165.132 28.5524 187.953 24 211 24C234.047 24 256.868 28.5524 278.161 37.3972C299.454 46.242 318.801 59.2061 335.097 75.5492C351.394 91.8923 365.18 108.647 374 130Z" fill="#292323"/>
</svg>
