<svg width="425" height="206" viewBox="0 0 425 206" fill="none" xmlns="http://www.w3.org/2000/svg">
<path d="M374 133C380.548 148.852 385.5 167.5 385.5 203C374.5 203 347 214 293 185C238.156 155.547 224.107 125.5 211 106C198 133 174 157.339 138.5 179.5C103 201.661 54.1667 200.5 38 203C38 179.887 40.0394 157.001 48.8591 135.648C57.6788 114.294 70.6061 94.8923 86.9028 78.5492C103.199 62.2061 122.546 49.242 143.839 40.3972C165.132 31.5524 187.953 27 211 27C234.047 27 256.868 31.5524 278.161 40.3972C299.454 49.242 318.801 62.2061 335.097 78.5492C351.394 94.8923 365.18 111.647 374 133Z" fill="#292323"/>
<path d="M210 148C220.4 125.6 222 108.5 222 100.5C217.5 75.5 201.5 86.5 200 93C198.5 99.5 200.5 110 198.5 136C196.9 156.8 176.167 182 164.5 190C175 186.833 199.6 170.4 210 148Z" fill="#292323"/>
</svg>
