<svg width="425" height="204" viewBox="0 0 425 204" fill="none" xmlns="http://www.w3.org/2000/svg">
<path d="M143.316 136.714C139.752 119.605 167.197 107.129 182.167 103.564C197.137 100 199.988 100 219.591 100H219.592C239.195 100 283.392 106.773 281.966 130.298C280.826 149.118 260.105 148.596 249.888 145.982C254.759 153.942 263.076 171.86 257.373 179.844C251.67 187.829 238.601 181.032 232.779 176.636C232.304 182.102 227.647 194.601 212.82 200.875C197.992 207.148 194.048 185.666 193.929 174.141C187.276 176.399 172.044 178.704 164.345 169.864C156.647 161.024 167.553 150.259 173.969 145.982C165.771 149.427 146.042 149.799 143.316 136.714Z" fill="#292323"/>
<path d="M374 131C380.548 146.852 385.5 165.5 385.5 201C374.5 201 347 212 293 183C238.156 153.547 224.107 123.5 211 104C198 131 174 155.339 138.5 177.5C103 199.661 54.1667 198.5 38 201C38 177.887 40.0394 155.001 48.8591 133.648C57.6788 112.294 70.6061 92.8923 86.9028 76.5492C103.199 60.2061 122.546 47.242 143.839 38.3972C165.132 29.5524 187.953 25 211 25C234.047 25 256.868 29.5524 278.161 38.3972C299.454 47.242 318.801 60.2061 335.097 76.5492C351.394 92.8923 365.18 109.647 374 131Z" fill="#292323"/>
</svg>
