<svg width="425" height="204" viewBox="0 0 425 204" fill="none" xmlns="http://www.w3.org/2000/svg">
<path d="M374 131C380.548 146.852 385.5 165.5 385.5 201C374.5 201 347 212 293 183C238.156 153.547 224.107 123.5 211 104C198 131 174 155.339 138.5 177.5C103 199.661 54.1667 198.5 38 201C38 177.887 40.0394 155.001 48.8591 133.648C57.6788 112.294 70.6061 92.8923 86.9028 76.5492C103.199 60.2061 122.546 47.242 143.839 38.3972C165.132 29.5524 187.953 25 211 25C234.047 25 256.868 29.5524 278.161 38.3972C299.454 47.242 318.801 60.2061 335.097 76.5492C351.394 92.8923 365.18 109.647 374 131Z" fill="#292323"/>
<circle cx="149.5" cy="159.5" r="38.5" fill="#292323"/>
<path d="M251 159.5C251 180.763 233.763 198 212.5 198C191.237 198 174 180.763 174 159.5C174 138.237 191.237 95.5 212.5 95.5C233.763 95.5 251 138.237 251 159.5Z" fill="#292323"/>
<circle cx="274.5" cy="159.5" r="38.5" fill="#292323"/>
</svg>
