<svg width="425" height="202" viewBox="0 0 425 202" fill="none" xmlns="http://www.w3.org/2000/svg">
<path d="M374 130C380.548 145.852 385.5 164.5 385.5 200C374.5 200 311.839 206 271 190C230.161 174 224.107 161.5 211 142C198 169 174 180 137.5 190C101 200 54.1667 197.5 38 200C38 176.887 40.0394 154.001 48.8591 132.648C57.6788 111.294 70.6061 91.8923 86.9028 75.5492C103.199 59.2061 122.546 46.242 143.839 37.3972C165.132 28.5524 187.953 24 211 24C234.047 24 256.868 28.5524 278.161 37.3972C299.454 46.242 318.801 59.2061 335.097 75.5492C351.394 91.8923 365.18 108.647 374 130Z" fill="#292323"/>
</svg>
