<svg width="425" height="204" viewBox="0 0 425 204" fill="none" xmlns="http://www.w3.org/2000/svg">
<path d="M375 133C381.548 148.852 386.5 167.5 386.5 203C375.5 203 338.632 198.4 279.161 180C219.69 161.6 177.607 130 164.5 110.5C164.833 116.5 164.5 144.5 144.839 165.5C123.608 188.177 87.9028 208 39 203C39 179.887 41.0394 157.001 49.8591 135.648C58.6788 114.294 71.6061 94.8923 87.9028 78.5492C104.199 62.2061 123.546 49.242 144.839 40.3972C166.132 31.5524 188.953 27 212 27C235.047 27 257.868 31.5524 279.161 40.3972C300.454 49.242 319.801 62.2061 336.097 78.5492C352.394 94.8923 366.18 111.647 375 133Z" fill="#292323"/>
</svg>
