<svg width="288" height="166" viewBox="0 0 288 166" fill="none" xmlns="http://www.w3.org/2000/svg">
<path d="M116.793 98.2925C113.849 108.153 104.713 115.341 93.8955 115.341C80.6984 115.341 70 104.643 70 91.4458C70 85.341 72.2897 79.7711 76.0566 75.5474L116.793 98.2925Z" fill="white"/>
<path d="M171.372 98.2925C174.316 108.153 183.452 115.341 194.27 115.341C207.467 115.341 218.165 104.643 218.165 91.4458C218.165 85.341 215.874 79.7721 212.107 75.5483L171.372 98.2925Z" fill="white"/>
<path d="M74.5 52.5C82 57.5 114.5 78.5 123.5 84" stroke="black" stroke-width="3.67626" stroke-linecap="round"/>
<path d="M213 53C205.5 58 173 79 164 84.5" stroke="black" stroke-width="3.67626" stroke-linecap="round"/>
<path d="M106.704 92.6602C106.092 99.1966 100.592 104.312 93.8955 104.312C86.7893 104.312 81.0283 98.5515 81.0283 91.4453C81.0284 87.2515 83.0352 83.5267 86.1406 81.1777L106.704 92.6602Z" fill="black"/>
<path d="M181.46 92.6602C182.072 99.1966 187.572 104.312 194.269 104.312C201.375 104.312 207.136 98.5515 207.136 91.4453C207.136 87.2515 205.129 83.5267 202.023 81.1777L181.46 92.6602Z" fill="black"/>
</svg>
