<svg width="289" height="166" viewBox="0 0 289 166" fill="none" xmlns="http://www.w3.org/2000/svg">
<path d="M115.793 97.7925C112.849 107.653 103.713 114.841 92.8955 114.841C79.6984 114.841 69.0001 104.143 69 90.9458C69 84.841 71.2897 79.2711 75.0566 75.0474L115.793 97.7925Z" fill="white"/>
<path d="M170.372 97.7925C173.316 107.653 182.452 114.841 193.27 114.841C206.467 114.841 217.165 104.143 217.165 90.9458C217.165 84.841 214.875 79.2711 211.108 75.0474L170.372 97.7925Z" fill="white"/>
<path d="M74.5 52.5C82 57.5 114.5 78.5 123.5 84" stroke="black" stroke-width="3.67626" stroke-linecap="round"/>
<path d="M213 53C205.5 58 173 79 164 84.5" stroke="black" stroke-width="3.67626" stroke-linecap="round"/>
<path d="M75 53C82.5 58 115 79 124 84.5" stroke="black" stroke-width="3.67626" stroke-linecap="round"/>
<path d="M213.5 53.5C206 58.5 173.5 79.5 164.5 85" stroke="black" stroke-width="3.67626" stroke-linecap="round"/>
</svg>
