<svg width="289" height="164" viewBox="0 0 289 164" fill="none" xmlns="http://www.w3.org/2000/svg">
<path d="M183.128 52.6857C186.81 49.7905 192.475 44.0001 203.52 44C212.906 44 220.797 50.3695 222.214 52.6857" stroke="black" stroke-width="3.67626" stroke-linecap="round"/>
<path d="M104.328 52.6857C100.646 49.7905 94.9815 44.0001 83.9356 44C74.5505 44 66.6586 50.3695 65.2424 52.6857" stroke="black" stroke-width="3.67626" stroke-linecap="round"/>
<circle cx="87.2285" cy="92.044" r="28.2285" fill="white"/>
<circle cx="200.772" cy="92.044" r="28.2285" fill="white"/>
<circle cx="87.2283" cy="92.0437" r="15.2" fill="#757575"/>
<circle cx="200.771" cy="92.0437" r="15.2" fill="#757575"/>
<path d="M200.288 62.1968C214.593 62.1969 226.41 72.8375 228.262 86.6353H172.313C174.165 72.8374 185.983 62.1968 200.288 62.1968Z" fill="#CD9166"/>
<path d="M86.9766 62.1968C101.281 62.1969 113.098 72.8375 114.95 86.6353H59.002C60.8537 72.8374 72.6717 62.1968 86.9766 62.1968Z" fill="#CD9166"/>
</svg>
