<svg width="288" height="164" viewBox="0 0 288 164" fill="none" xmlns="http://www.w3.org/2000/svg">
<path d="M78.2061 51.3525C81.3229 48.9017 86.118 44 95.4685 44C103.413 44 110.094 49.3918 111.292 51.3525" stroke="black" stroke-width="3.67626" stroke-linecap="round"/>
<path d="M179.165 51.3525C182.282 48.9017 187.077 44 196.427 44C204.372 44 211.053 49.3918 212.251 51.3525" stroke="black" stroke-width="3.67626" stroke-linecap="round"/>
<rect x="72" y="64.7334" width="43.313" height="52.9381" rx="14.4377" fill="white"/>
<rect x="173" y="64.7334" width="43.313" height="52.9381" rx="14.4377" fill="white"/>
<path d="M184 76.6778C184 69.9813 189.481 64.5806 196.176 64.6791L206.176 64.8261C212.734 64.9226 218 70.2662 218 76.8248V106C218 112.627 212.627 118 206 118H196C189.373 118 184 112.627 184 106V76.6778Z" fill="#757575"/>
<path d="M83 76.6778C83 69.9813 88.4807 64.5806 95.1765 64.6791L105.176 64.8261C111.734 64.9226 117 70.2662 117 76.8248V106C117 112.627 111.627 118 105 118H95C88.3726 118 83 112.627 83 106V76.6778Z" fill="#757575"/>
<rect x="90.6191" y="76.2378" width="18.6189" height="28.9627" rx="9.30944" fill="black"/>
<rect x="191.619" y="76.2378" width="18.6189" height="28.9627" rx="9.30944" fill="black"/>
</svg>
