<svg width="288" height="164" viewBox="0 0 288 164" fill="none" xmlns="http://www.w3.org/2000/svg">
<path d="M120.889 100.473C120.889 100.473 96.614 112.173 85.1545 112.173C73.6951 112.173 54.0308 100.473 54.0308 100.473C54.0308 100.473 76.0005 88.7725 87.46 88.7725C98.9195 88.7725 120.889 100.473 120.889 100.473Z" fill="white"/>
<path d="M235.286 100.473C235.286 100.473 211.01 112.173 199.551 112.173C188.092 112.173 168.427 100.473 168.427 100.473C168.427 100.473 190.397 88.7725 201.856 88.7725C213.316 88.7725 235.286 100.473 235.286 100.473Z" fill="white"/>
<circle cx="89.1309" cy="100.473" r="11.7002" fill="black"/>
<circle cx="200.185" cy="100.473" r="11.7002" fill="black"/>
<rect x="49" y="52" width="76.8873" height="20.0576" fill="#403E3E"/>
<rect x="161.429" y="52" width="76.8873" height="20.0576" fill="#403E3E"/>
</svg>
