<svg width="288" height="166" viewBox="0 0 288 166" fill="none" xmlns="http://www.w3.org/2000/svg">
<path d="M92.4297 79.8663C92.4297 76.0372 95.5338 72.9331 99.3629 72.9331C103.192 72.9331 106.296 76.0372 106.296 79.8663V93.7327C106.296 97.5618 103.192 100.666 99.3629 100.666C95.5338 100.666 92.4297 97.5618 92.4297 93.7327V79.8663Z" fill="black"/>
<path d="M190.43 79.8663C190.43 76.0372 193.534 72.9331 197.363 72.9331C201.192 72.9331 204.296 76.0372 204.296 79.8663V93.7327C204.296 97.5618 201.192 100.666 197.363 100.666C193.534 100.666 190.43 97.5618 190.43 93.7327V79.8663Z" fill="black"/>
<path d="M83.185 66C82.4146 69.0814 83.6472 76.1687 94.7403 79.8664" stroke="black" stroke-width="4.62213" stroke-linecap="round" stroke-linejoin="round"/>
<path d="M181.185 66C180.415 69.0814 181.647 76.1687 192.74 79.8664" stroke="black" stroke-width="4.62213" stroke-linecap="round" stroke-linejoin="round"/>
</svg>
