<svg width="284" height="166" viewBox="0 0 284 166" fill="none" xmlns="http://www.w3.org/2000/svg">
<path d="M71 65.2443C74.9188 62.1628 80.9476 56.0001 92.7039 56C102.693 56 111.092 62.7791 112.599 65.2443" stroke="black" stroke-width="4.62213" stroke-linecap="round"/>
<path d="M171 65.2443C174.919 62.1628 180.948 56.0001 192.704 56C202.693 56 211.092 62.7791 212.599 65.2443" stroke="black" stroke-width="4.62213" stroke-linecap="round"/>
<path d="M88.7041 90.0924C88.7041 86.2633 91.8082 83.1592 95.6373 83.1592C99.4664 83.1592 102.57 86.2633 102.57 90.0924V103.959C102.57 107.788 99.4664 110.892 95.6373 110.892C91.8082 110.892 88.7041 107.788 88.7041 103.959V90.0924Z" fill="black"/>
<path d="M188.704 90.0924C188.704 86.2633 191.808 83.1592 195.637 83.1592C199.466 83.1592 202.57 86.2633 202.57 90.0924V103.959C202.57 107.788 199.466 110.892 195.637 110.892C191.808 110.892 188.704 107.788 188.704 103.959V90.0924Z" fill="black"/>
<path d="M79.4603 76.2266C78.69 79.308 79.9226 86.3953 91.0157 90.093" stroke="black" stroke-width="4.62213" stroke-linecap="round" stroke-linejoin="round"/>
<path d="M179.46 76.2266C178.69 79.308 179.923 86.3953 191.016 90.093" stroke="black" stroke-width="4.62213" stroke-linecap="round" stroke-linejoin="round"/>
</svg>
