<svg width="289" height="166" viewBox="0 0 289 166" fill="none" xmlns="http://www.w3.org/2000/svg">
<path d="M58.6827 45.3319C60.8615 43.7705 73.315 36 91.365 36C109.415 36 126.226 43.7705 124.047 45.3319C124.047 63.3819 120.702 45.3315 92.3775 45.3315C61.874 45.3315 58.6827 63.3819 58.6827 45.3319Z" fill="black"/>
<path d="M165.683 45.3319C167.862 43.7705 180.315 36 198.365 36C216.415 36 233.226 43.7705 231.047 45.3319C231.047 63.3819 227.702 45.3315 199.377 45.3315C168.874 45.3315 165.683 63.3819 165.683 45.3319Z" fill="black"/>
<path d="M87.2683 69.1108C88.5069 65.2988 93.8998 65.2988 95.1384 69.1108L98.4026 79.1569C98.9565 80.8617 100.545 82.0159 102.338 82.0159L112.901 82.0159C116.909 82.0159 118.575 87.1449 115.333 89.5008L106.787 95.7097C105.337 96.7633 104.73 98.6308 105.284 100.336L108.548 110.382C109.787 114.194 105.424 117.364 102.181 115.008L93.6353 108.799C92.1852 107.745 90.2215 107.745 88.7714 108.799L80.2256 115.008C76.9829 117.364 72.62 114.194 73.8586 110.382L77.1228 100.336C77.6767 98.6308 77.0699 96.7633 75.6197 95.7097L67.0739 89.5008C63.8313 87.1449 65.4978 82.0159 69.5059 82.0159L80.0691 82.0159C81.8616 82.0159 83.4502 80.8617 84.0041 79.1569L87.2683 69.1108Z" fill="#FFEBB7"/>
<path d="M194.844 69.1108C196.083 65.2988 201.475 65.2988 202.714 69.1108L205.978 79.1569C206.532 80.8617 208.121 82.0159 209.913 82.0159L220.477 82.0159C224.485 82.0159 226.151 87.1449 222.908 89.5008L214.363 95.7097C212.913 96.7633 212.306 98.6308 212.86 100.336L216.124 110.382C217.362 114.194 212.999 117.364 209.757 115.008L201.211 108.799C199.761 107.745 197.797 107.745 196.347 108.799L187.801 115.008C184.559 117.364 180.196 114.194 181.434 110.382L184.698 100.336C185.252 98.6308 184.646 96.7633 183.195 95.7097L174.65 89.5008C171.407 87.1449 173.073 82.0159 177.082 82.0159L187.645 82.0159C189.437 82.0159 191.026 80.8617 191.58 79.1569L194.844 69.1108Z" fill="#FFEBB7"/>
</svg>
