<svg width="288" height="164" viewBox="0 0 288 164" fill="none" xmlns="http://www.w3.org/2000/svg">
<path d="M55.2595 43.1907C57.4053 41.653 69.6702 34.0001 87.4468 34.0001C105.223 34.0001 121.78 41.6529 119.634 43.1907C119.634 60.9673 116.34 43.1903 88.444 43.1903C58.4024 43.1903 55.2595 60.9673 55.2595 43.1907Z" fill="black"/>
<path d="M169.259 43.1907C171.405 41.653 183.67 34.0001 201.447 34.0001C219.223 34.0001 235.78 41.6529 233.634 43.1907C233.634 60.9673 230.34 43.1903 202.444 43.1903C172.402 43.1903 169.259 60.9673 169.259 43.1907Z" fill="black"/>
<path d="M87.2034 56.6392L95.3315 81.6551L121.635 81.6551L100.355 97.1158L108.483 122.132L87.2034 106.671L65.9236 122.132L74.0517 97.1158L52.7719 81.6551L79.0752 81.6551L87.2034 56.6392Z" fill="#FFEBB7"/>
<path d="M200.986 56.6392L209.114 81.6551L235.417 81.6551L214.137 97.1158L222.265 122.132L200.986 106.671L179.706 122.132L187.834 97.1158L166.554 81.6551L192.857 81.6551L200.986 56.6392Z" fill="#FFEBB7"/>
</svg>
