<svg width="289" height="166" viewBox="0 0 289 166" fill="none" xmlns="http://www.w3.org/2000/svg">
<ellipse cx="92.3093" cy="93.8329" rx="19.7107" ry="32.1596" fill="white"/>
<ellipse cx="195.95" cy="93.8329" rx="18.6733" ry="32.1596" fill="white"/>
<ellipse cx="96.4585" cy="93.8331" rx="15.5611" ry="25.9352" fill="black"/>
<ellipse cx="191.8" cy="92.7957" rx="14.5237" ry="24.8977" fill="black"/>
<path d="M63.0002 48.2806C64.9335 46.8951 75.9841 40 92.0006 40C108.017 40 122.934 46.8951 121.001 48.2806C121.001 64.2971 118.033 48.2802 92.899 48.2802C65.832 48.2802 63.0002 64.2971 63.0002 48.2806Z" fill="black"/>
<path d="M167 48.2806C168.934 46.8951 179.984 40 196.001 40C212.017 40 226.934 46.8951 225.001 48.2806C225.001 64.2971 222.033 48.2802 196.899 48.2802C169.832 48.2802 167 64.2971 167 48.2806Z" fill="black"/>
</svg>
