<svg width="289" height="166" viewBox="0 0 289 166" fill="none" xmlns="http://www.w3.org/2000/svg">
<path d="M75 52.3889C78.5562 49.5926 84.0272 44.0001 94.6957 44C103.76 44 111.382 50.1519 112.75 52.3889" stroke="black" stroke-width="4.19445" stroke-linecap="round"/>
<path d="M179.577 52.3889C183.133 49.5926 188.604 44.0001 199.273 44C208.337 44 215.959 50.1519 217.327 52.3889" stroke="black" stroke-width="4.19445" stroke-linecap="round"/>
<rect x="72" y="60.3604" width="49.4182" height="60.4" rx="16.4727" fill="white"/>
<rect x="173.582" y="60.3604" width="49.4182" height="60.4" rx="16.4727" fill="white"/>
<rect x="81.4414" y="68.7656" width="30.2" height="46.6728" rx="15.1" fill="#757575"/>
<rect x="182.938" y="68.7656" width="30.2" height="46.6728" rx="15.1" fill="#757575"/>
<rect x="88.5225" y="78.3755" width="16.5226" height="25.9641" rx="8.26129" fill="black"/>
<rect x="190.018" y="78.3755" width="16.5226" height="25.9641" rx="8.26129" fill="black"/>
</svg>
