<svg width="289" height="164" viewBox="0 0 289 164" fill="none" xmlns="http://www.w3.org/2000/svg">
<ellipse cx="93.3224" cy="94.6526" rx="20.8038" ry="33.9431" fill="white"/>
<ellipse cx="192.109" cy="94.6526" rx="20.8038" ry="33.9431" fill="white"/>
<ellipse cx="93.323" cy="94.6523" rx="16.4241" ry="27.3735" fill="black"/>
<ellipse cx="192.109" cy="94.6523" rx="16.4241" ry="27.3735" fill="black"/>
<path d="M64 44.3975C65.9606 42.9925 77.1669 36.0002 93.4092 36.0002C109.651 36.0002 124.779 42.9925 122.818 44.3975C122.818 60.6398 119.808 44.3971 94.3203 44.3972C66.8717 44.3972 64 60.6398 64 44.3975Z" fill="black"/>
<path d="M166 44.3975C167.961 42.9925 179.167 36.0002 195.409 36.0002C211.651 36.0002 226.779 42.9925 224.818 44.3975C224.818 60.6398 221.808 44.3971 196.32 44.3972C168.872 44.3972 166 60.6398 166 44.3975Z" fill="black"/>
</svg>
