<svg width="289" height="164" viewBox="0 0 289 164" fill="none" xmlns="http://www.w3.org/2000/svg">
<path d="M171.189 63.2443C175.544 60.1628 182.242 54.0001 195.305 54C206.403 54 215.736 60.7791 217.411 63.2443" stroke="black" stroke-width="9.24426" stroke-linecap="round"/>
<path d="M71 63.2443C75.3542 60.1628 82.0529 54.0001 95.1155 54C106.214 54 115.547 60.7791 117.221 63.2443" stroke="black" stroke-width="9.24426" stroke-linecap="round"/>
<path d="M187.739 89.4347C187.739 85.6056 190.843 82.5015 194.672 82.5015C198.502 82.5015 201.606 85.6056 201.606 89.4347V103.301C201.606 107.13 198.502 110.234 194.672 110.234C190.843 110.234 187.739 107.13 187.739 103.301V89.4347Z" fill="black"/>
<path d="M87.5498 89.4347C87.5498 85.6056 90.6539 82.5015 94.483 82.5015C98.3121 82.5015 101.416 85.6056 101.416 89.4347V103.301C101.416 107.13 98.3121 110.234 94.483 110.234C90.6539 110.234 87.5498 107.13 87.5498 103.301V89.4347Z" fill="black"/>
</svg>
