<svg width="289" height="166" viewBox="0 0 289 166" fill="none" xmlns="http://www.w3.org/2000/svg">
<path d="M51 66.6296C57.8699 64.4198 68.4389 60 89.0484 60C106.559 60 121.284 64.8617 123.926 66.6296" stroke="black" stroke-width="3.67626" stroke-linecap="round"/>
<path d="M164 66.6296C170.87 64.4198 181.439 60 202.048 60C219.559 60 234.284 64.8617 236.926 66.6296" stroke="black" stroke-width="3.67626" stroke-linecap="round"/>
<path d="M120.611 94.8055C120.611 94.8055 96.5397 106.407 85.1766 106.407C73.8135 106.407 54.3145 94.8055 54.3145 94.8055C54.3145 94.8055 76.0996 83.2036 87.4627 83.2036C98.8258 83.2036 120.611 94.8055 120.611 94.8055Z" fill="white"/>
<path d="M233.612 94.806C233.612 94.806 209.541 106.408 198.178 106.408C186.814 106.408 167.315 94.806 167.315 94.806C167.315 94.806 189.101 83.2041 200.464 83.2041C211.827 83.2041 233.612 94.806 233.612 94.806Z" fill="white"/>
<circle cx="89.1204" cy="94.8055" r="11.6019" fill="black"/>
<circle cx="198.806" cy="94.806" r="11.6019" fill="black"/>
</svg>
